<?xml version="1.0" encoding="UTF-8"?>
<!DOCTYPE svg PUBLIC "-//W3C//DTD SVG 1.1//EN" "http://www.w3.org/Graphics/SVG/1.1/DTD/svg11.dtd">
<svg xmlns="http://www.w3.org/2000/svg" version="1.1" width="48px" height="48px" style="shape-rendering:geometricPrecision; text-rendering:geometricPrecision; image-rendering:optimizeQuality; fill-rule:evenodd; clip-rule:evenodd" xmlns:xlink="http://www.w3.org/1999/xlink">
<g><path style="opacity:1" fill="#273238" d="M 45.5,17.5 C 39.7945,17.8288 34.1278,17.4954 28.5,16.5C 29.0665,12.5338 28.3999,12.5338 26.5,16.5C 25.8333,16.1667 25.1667,15.8333 24.5,15.5C 23.8333,14.1667 23.1667,14.1667 22.5,15.5C 21.8333,15.8333 21.1667,16.1667 20.5,16.5C 20.0834,14.3548 19.0834,13.6882 17.5,14.5C 17.9767,15.4776 18.6433,16.3109 19.5,17C 13.5092,17.4995 7.50924,17.6662 1.5,17.5C 1.5,14.5 1.5,11.5 1.5,8.5C 16.1667,8.5 30.8333,8.5 45.5,8.5C 45.5,11.5 45.5,14.5 45.5,17.5 Z"/></g>
<g><path style="opacity:1" fill="#e6e8ea" d="M 20.5,16.5 C 20.5858,17.4959 20.2524,18.3292 19.5,19C 13.5092,19.4995 7.50924,19.6662 1.5,19.5C 1.5,18.8333 1.5,18.1667 1.5,17.5C 7.50924,17.6662 13.5092,17.4995 19.5,17C 18.6433,16.3109 17.9767,15.4776 17.5,14.5C 19.0834,13.6882 20.0834,14.3548 20.5,16.5 Z"/></g>
<g><path style="opacity:1" fill="#e8bbbb" d="M 24.5,15.5 C 23.8333,23.5 23.1667,23.5 22.5,15.5C 23.1667,14.1667 23.8333,14.1667 24.5,15.5 Z"/></g>
<g><path style="opacity:1" fill="#e8e9eb" d="M 45.5,17.5 C 45.5,18.1667 45.5,18.8333 45.5,19.5C 39.4908,19.6662 33.4908,19.4995 27.5,19C 26.7476,18.3292 26.4142,17.4959 26.5,16.5C 28.3999,12.5338 29.0665,12.5338 28.5,16.5C 34.1278,17.4954 39.7945,17.8288 45.5,17.5 Z"/></g>
<g><path style="opacity:1" fill="#d20101" d="M 22.5,15.5 C 23.1667,23.5 23.8333,23.5 24.5,15.5C 25.1667,15.8333 25.8333,16.1667 26.5,16.5C 26.4142,17.4959 26.7476,18.3292 27.5,19C 33.4908,19.4995 39.4908,19.6662 45.5,19.5C 45.5,22.1667 45.5,24.8333 45.5,27.5C 39.4908,27.3338 33.4908,27.5005 27.5,28C 26.7476,28.6708 26.4142,29.5041 26.5,30.5C 25.8333,30.8333 25.1667,31.1667 24.5,31.5C 23.8333,23.5 23.1667,23.5 22.5,31.5C 21.8333,31.1667 21.1667,30.8333 20.5,30.5C 20.5858,29.5041 20.2524,28.6708 19.5,28C 13.5092,27.5005 7.50924,27.3338 1.5,27.5C 1.5,24.8333 1.5,22.1667 1.5,19.5C 7.50924,19.6662 13.5092,19.4995 19.5,19C 20.2524,18.3292 20.5858,17.4959 20.5,16.5C 21.1667,16.1667 21.8333,15.8333 22.5,15.5 Z"/></g>
<g><path style="opacity:1" fill="#200200" d="M 18.5,20.5 C 19.6491,20.7911 20.3158,21.6244 20.5,23C 20.1667,23.8333 19.8333,24.6667 19.5,25.5C 18.5481,23.9547 18.2148,22.288 18.5,20.5 Z"/></g>
<g><path style="opacity:1" fill="#e6b7b8" d="M 22.5,22.5 C 24.337,22.6395 24.6704,23.3061 23.5,24.5C 22.7025,24.0431 22.3691,23.3764 22.5,22.5 Z"/></g>
<g><path style="opacity:1" fill="#200200" d="M 26.5,20.5 C 27.6491,20.7911 28.3158,21.6244 28.5,23C 28.1667,23.8333 27.8333,24.6667 27.5,25.5C 26.5481,23.9547 26.2148,22.288 26.5,20.5 Z"/></g>
<g><path style="opacity:1" fill="#eaebed" d="M 1.5,27.5 C 7.50924,27.3338 13.5092,27.5005 19.5,28C 20.2524,28.6708 20.5858,29.5041 20.5,30.5C 18.7379,33.1417 18.4046,32.975 19.5,30C 13.5092,29.5005 7.50924,29.3338 1.5,29.5C 1.5,28.8333 1.5,28.1667 1.5,27.5 Z"/></g>
<g><path style="opacity:1" fill="#e7b8b6" d="M 24.5,31.5 C 23.8333,32.8333 23.1667,32.8333 22.5,31.5C 23.1667,23.5 23.8333,23.5 24.5,31.5 Z"/></g>
<g><path style="opacity:1" fill="#e7e9e9" d="M 45.5,27.5 C 45.5,28.1667 45.5,28.8333 45.5,29.5C 39.4908,29.3338 33.4908,29.5005 27.5,30C 28.5954,32.975 28.2621,33.1417 26.5,30.5C 26.4142,29.5041 26.7476,28.6708 27.5,28C 33.4908,27.5005 39.4908,27.3338 45.5,27.5 Z"/></g>
<g><path style="opacity:1" fill="#34691e" d="M 1.5,29.5 C 7.50924,29.3338 13.5092,29.5005 19.5,30C 18.4046,32.975 18.7379,33.1417 20.5,30.5C 21.1667,30.8333 21.8333,31.1667 22.5,31.5C 23.1667,32.8333 23.8333,32.8333 24.5,31.5C 25.1667,31.1667 25.8333,30.8333 26.5,30.5C 28.2621,33.1417 28.5954,32.975 27.5,30C 33.4908,29.5005 39.4908,29.3338 45.5,29.5C 45.5,32.5 45.5,35.5 45.5,38.5C 30.8333,38.5 16.1667,38.5 1.5,38.5C 1.5,35.5 1.5,32.5 1.5,29.5 Z"/></g>
</svg>
