<?xml version="1.0" encoding="UTF-8"?>
<!DOCTYPE svg PUBLIC "-//W3C//DTD SVG 1.1//EN" "http://www.w3.org/Graphics/SVG/1.1/DTD/svg11.dtd">
<svg xmlns="http://www.w3.org/2000/svg" version="1.1" width="300px" height="399px" style="shape-rendering:geometricPrecision; text-rendering:geometricPrecision; image-rendering:optimizeQuality; fill-rule:evenodd; clip-rule:evenodd" xmlns:xlink="http://www.w3.org/1999/xlink">
<g><path style="opacity:1" fill="#f6f5f6" d="M -0.5,-0.5 C 99.5,-0.5 199.5,-0.5 299.5,-0.5C 299.5,132.5 299.5,265.5 299.5,398.5C 199.5,398.5 99.5,398.5 -0.5,398.5C -0.5,265.5 -0.5,132.5 -0.5,-0.5 Z"/></g>
<g><path style="opacity:1" fill="#d5d3dd" d="M 180.5,32.5 C 181.5,32.5 182.5,32.5 183.5,32.5C 185.462,39.6802 185.962,47.0135 185,54.5C 183.781,47.3414 181.281,40.6747 177.5,34.5C 178.602,33.8243 179.602,33.1577 180.5,32.5 Z"/></g>
<g><path style="opacity:1" fill="#d3cfdd" d="M 95.5,53.5 C 96.0967,53.7352 96.4301,54.2352 96.5,55C 95.0734,56.7002 94.24,58.5335 94,60.5C 95.8333,61.6667 97.6667,62.8333 99.5,64C 104.731,69.062 109.731,74.2286 114.5,79.5C 128.421,91.0461 127.421,92.3795 111.5,83.5C 103.884,80.5721 96.2177,77.7387 88.5,75C 82.8333,74.3333 77.1667,74.3333 71.5,75C 70.5842,75.2784 69.9175,75.7784 69.5,76.5C 68.475,76.1034 68.3083,75.4368 69,74.5C 74.0646,69.926 79.2312,65.5926 84.5,61.5C 87.2092,59.4913 90.2092,57.8247 93.5,56.5C 94.6119,55.7348 95.2786,54.7348 95.5,53.5 Z"/></g>
<g><path style="opacity:1" fill="#fefdfc" d="M 225.5,67.5 C 268.819,97.2564 288.986,138.59 286,191.5C 284.435,208.698 280.102,225.032 273,240.5C 269.73,246.593 265.897,252.26 261.5,257.5C 260.832,253.168 259.332,249.168 257,245.5C 254.525,244.014 252.025,242.681 249.5,241.5C 248.373,237.713 247.039,233.88 245.5,230C 248.599,217.916 251.432,205.749 254,193.5C 256.609,191.892 257.942,189.559 258,186.5C 262.476,183.795 265.143,179.795 266,174.5C 266.5,167.174 266.666,159.841 266.5,152.5C 263.405,152.626 261.572,154.293 261,157.5C 259.943,163.226 258.61,168.893 257,174.5C 256.003,176.323 254.836,177.99 253.5,179.5C 251.518,165.873 250.851,151.873 251.5,137.5C 249.901,137.232 248.568,137.566 247.5,138.5C 244.832,139.457 243.332,141.457 243,144.5C 242.667,151.5 242.333,158.5 242,165.5C 241.794,168.623 241.127,171.623 240,174.5C 239.581,173.328 238.915,172.328 238,171.5C 235.545,157.799 232.878,144.133 230,130.5C 228,127.833 226,127.833 224,130.5C 221.838,138.578 222.171,146.578 225,154.5C 225.944,161.829 226.777,169.162 227.5,176.5C 222.722,174.695 217.889,173.029 213,171.5C 210.107,172.199 207.274,173.199 204.5,174.5C 203.04,176.972 201.04,178.639 198.5,179.5C 196.77,180.026 195.436,181.026 194.5,182.5C 192.655,183.995 192.322,185.662 193.5,187.5C 193.5,187.833 193.5,188.167 193.5,188.5C 193.907,194.003 195.074,199.337 197,204.5C 198.815,206.405 200.815,208.072 203,209.5C 204.871,214.845 207.704,219.511 211.5,223.5C 214.243,226.536 217.576,228.536 221.5,229.5C 223.075,234.398 224.075,239.398 224.5,244.5C 222.775,245.905 220.775,246.405 218.5,246C 215.136,237.812 209.136,232.645 200.5,230.5C 193.286,228.527 185.952,226.527 178.5,224.5C 176.192,219.884 174.192,215.217 172.5,210.5C 170.221,209.349 167.888,208.349 165.5,207.5C 165.5,206.167 165.5,204.833 165.5,203.5C 168.32,203.752 170.986,203.252 173.5,202C 185.622,191.549 194.122,178.715 199,163.5C 199.352,153.163 199.185,142.829 198.5,132.5C 199.404,131.791 199.737,130.791 199.5,129.5C 199.963,124.391 200.963,119.391 202.5,114.5C 210.527,106.781 217.361,98.1143 223,88.5C 224.128,84.8839 224.962,81.2172 225.5,77.5C 225.493,75.6307 225.16,73.964 224.5,72.5C 224.579,71.0695 224.246,69.7362 223.5,68.5C 223.957,67.7025 224.624,67.3691 225.5,67.5 Z"/></g>
<g><path style="opacity:1" fill="#fdfdfd" d="M 65.5,74.5 C 67.0281,74.5173 67.5281,75.184 67,76.5C 53.3934,88.8 47.3934,104.133 49,122.5C 50.3767,124.754 51.8767,126.92 53.5,129C 65.7929,135.156 78.7929,137.656 92.5,136.5C 92.5,137.833 92.5,139.167 92.5,140.5C 92.3367,142.857 92.5034,145.19 93,147.5C 94.7909,150.35 95.9576,153.35 96.5,156.5C 97.1495,158.435 97.4828,160.435 97.5,162.5C 97.7234,166.162 98.7234,169.495 100.5,172.5C 101.976,174.769 103.476,177.102 105,179.5C 106.129,181.141 107.629,182.141 109.5,182.5C 109.634,184.292 109.301,185.958 108.5,187.5C 100.963,195.552 94.13,204.219 88,213.5C 85.0662,218.469 83.2328,223.802 82.5,229.5C 81.5318,231.607 81.1984,233.941 81.5,236.5C 78.4377,236.844 75.4377,237.511 72.5,238.5C 67.2512,244.124 64.0846,250.791 63,258.5C 59.2927,264.027 55.126,269.027 50.5,273.5C 29.3674,250.761 17.3674,223.761 14.5,192.5C 14.156,180.094 14.8226,167.761 16.5,155.5C 22.3721,122.075 38.7054,95.0753 65.5,74.5 Z"/></g>
<g><path style="opacity:1" fill="#f4f3f8" d="M 111.5,83.5 C 110.929,86.4769 109.929,89.3103 108.5,92C 104.843,91.8922 101.177,91.8922 97.5,92C 100.43,92.6063 103.263,93.4396 106,94.5C 106.138,96.4324 105.638,98.2657 104.5,100C 98.9614,99.6942 93.4614,98.8609 88,97.5C 83.3774,97.5283 79.2108,98.8616 75.5,101.5C 82.8108,102.331 90.1441,102.831 97.5,103C 98.938,103.219 100.271,103.719 101.5,104.5C 100.5,106.167 99.1667,107.5 97.5,108.5C 91.8333,109.167 86.1667,109.833 80.5,110.5C 84.7956,111.328 89.1289,111.828 93.5,112C 87.2005,114.951 80.5339,116.284 73.5,116C 68.979,116.729 64.6457,118.063 60.5,120C 65.5276,120.588 70.5276,120.422 75.5,119.5C 79.2896,119.008 79.9563,119.841 77.5,122C 70.4442,125.763 63.1109,127.263 55.5,126.5C 53.7026,124.869 52.5359,122.869 52,120.5C 50.0582,106.997 53.3916,94.9972 62,84.5C 64.705,81.9638 67.205,79.2971 69.5,76.5C 69.9175,75.7784 70.5842,75.2784 71.5,75C 77.1667,74.3333 82.8333,74.3333 88.5,75C 96.2177,77.7387 103.884,80.5721 111.5,83.5 Z"/></g>
<g><path style="opacity:1" fill="#d9d7e5" d="M 224.5,72.5 C 225.16,73.964 225.493,75.6307 225.5,77.5C 224.962,81.2172 224.128,84.8839 223,88.5C 217.361,98.1143 210.527,106.781 202.5,114.5C 200.963,119.391 199.963,124.391 199.5,129.5C 198.671,122.679 198.171,115.679 198,108.5C 190.32,100.075 180.82,94.9085 169.5,93C 146.364,90.8241 125.531,96.6574 107,110.5C 103.89,118.55 102.39,126.884 102.5,135.5C 98.9864,136.784 95.653,138.45 92.5,140.5C 92.5,139.167 92.5,137.833 92.5,136.5C 91.9455,130.846 91.4455,125.18 91,119.5C 85.734,118.176 80.5673,118.176 75.5,119.5C 70.5276,120.422 65.5276,120.588 60.5,120C 64.6457,118.063 68.979,116.729 73.5,116C 80.5339,116.284 87.2005,114.951 93.5,112C 89.1289,111.828 84.7956,111.328 80.5,110.5C 86.1667,109.833 91.8333,109.167 97.5,108.5C 99.1667,107.5 100.5,106.167 101.5,104.5C 100.271,103.719 98.938,103.219 97.5,103C 90.1441,102.831 82.8108,102.331 75.5,101.5C 79.2108,98.8616 83.3774,97.5283 88,97.5C 93.4614,98.8609 98.9614,99.6942 104.5,100C 105.638,98.2657 106.138,96.4324 106,94.5C 103.263,93.4396 100.43,92.6063 97.5,92C 101.177,91.8922 104.843,91.8922 108.5,92C 109.929,89.3103 110.929,86.4769 111.5,83.5C 127.421,92.3795 128.421,91.0461 114.5,79.5C 116.736,78.6109 118.736,77.2776 120.5,75.5C 118.874,74.0095 117.208,72.5095 115.5,71C 118.255,71.3353 120.922,72.3353 123.5,74C 127.178,74.4181 130.845,74.9181 134.5,75.5C 136.135,75.1223 137.635,74.4556 139,73.5C 146.428,76.9227 154.262,78.9227 162.5,79.5C 163.932,79.2668 164.432,78.6001 164,77.5C 161.261,74.8824 158.427,72.3824 155.5,70C 155.833,69.8333 156.167,69.6667 156.5,69.5C 160.944,72.441 164.944,75.941 168.5,80C 171.146,80.4974 173.813,80.6641 176.5,80.5C 176.263,77.3527 175.43,74.3527 174,71.5C 170.715,66.5463 167.048,61.8797 163,57.5C 162.251,56.365 162.417,55.365 163.5,54.5C 167.761,56.5932 171.261,59.5932 174,63.5C 177.097,69.5575 179.43,75.8908 181,82.5C 184.717,86.7616 188.55,90.9282 192.5,95C 194.217,96.5588 196.217,97.3921 198.5,97.5C 198.512,91.1292 198.012,84.7959 197,78.5C 194.775,72.9981 193.275,67.3315 192.5,61.5C 194.39,61.2965 195.89,61.9632 197,63.5C 202.386,74.981 203.886,86.981 201.5,99.5C 206.561,100.335 210.895,99.0014 214.5,95.5C 219.796,88.5859 223.129,80.9192 224.5,72.5 Z"/></g>
<g><path style="opacity:1" fill="#f4f3f7" d="M 199.5,129.5 C 199.737,130.791 199.404,131.791 198.5,132.5C 193.634,128.234 187.967,125.9 181.5,125.5C 179.524,123.989 177.191,123.156 174.5,123C 157.225,119.809 140.559,121.309 124.5,127.5C 120.233,128.256 116.233,129.589 112.5,131.5C 109.69,132.199 107.023,133.199 104.5,134.5C 103.833,134.833 103.167,135.167 102.5,135.5C 102.39,126.884 103.89,118.55 107,110.5C 125.531,96.6574 146.364,90.8241 169.5,93C 180.82,94.9085 190.32,100.075 198,108.5C 198.171,115.679 198.671,122.679 199.5,129.5 Z"/></g>
<g><path style="opacity:1" fill="#e9c7e9" d="M 95.5,53.5 C 95.2786,54.7348 94.6119,55.7348 93.5,56.5C 90.2092,57.8247 87.2092,59.4913 84.5,61.5C 81.91,62.1283 79.5766,63.295 77.5,65C 73.2486,67.9454 69.2486,71.112 65.5,74.5C 38.7054,95.0753 22.3721,122.075 16.5,155.5C 15.5713,158.675 14.738,162.009 14,165.5C 13.176,174.676 13.3427,183.676 14.5,192.5C 17.3674,223.761 29.3674,250.761 50.5,273.5C 50.9731,274.906 51.9731,275.573 53.5,275.5C 59.1069,283.135 66.1069,289.135 74.5,293.5C 77.9971,296.417 81.6637,299.25 85.5,302C 84.552,302.483 83.552,302.649 82.5,302.5C 41.2638,278.022 17.5971,242.022 11.5,194.5C 11.2751,182.474 11.6084,170.474 12.5,158.5C 17.8661,128.435 31.1994,102.435 52.5,80.5C 64.1666,70.9945 76.5,62.4945 89.5,55C 91.3453,53.872 93.3453,53.372 95.5,53.5 Z"/></g>
<g><path style="opacity:1" fill="#f5dac3" d="M 181.5,125.5 C 173.7,124.564 165.867,123.897 158,123.5C 146.68,123.948 135.513,125.281 124.5,127.5C 140.559,121.309 157.225,119.809 174.5,123C 177.191,123.156 179.524,123.989 181.5,125.5 Z"/></g>
<g><path style="opacity:1" fill="#fad3ae" d="M 181.5,125.5 C 187.967,125.9 193.634,128.234 198.5,132.5C 199.185,142.829 199.352,153.163 199,163.5C 194.122,178.715 185.622,191.549 173.5,202C 170.986,203.252 168.32,203.752 165.5,203.5C 165.5,204.833 165.5,206.167 165.5,207.5C 165.167,207.5 164.833,207.5 164.5,207.5C 157.972,205.538 151.305,203.371 144.5,201C 138.928,198.825 133.761,195.992 129,192.5C 128.215,198.249 128.382,203.916 129.5,209.5C 127.656,207.721 126.99,205.388 127.5,202.5C 127.79,198.064 127.29,193.73 126,189.5C 124.549,187.536 122.716,186.203 120.5,185.5C 120.5,185.167 120.5,184.833 120.5,184.5C 119.551,182.223 118.218,180.223 116.5,178.5C 114.143,172.488 111.81,166.488 109.5,160.5C 104.519,159.593 100.352,157.26 97,153.5C 96.5172,154.448 96.3505,155.448 96.5,156.5C 95.9576,153.35 94.7909,150.35 93,147.5C 92.5034,145.19 92.3367,142.857 92.5,140.5C 95.653,138.45 98.9864,136.784 102.5,135.5C 103.167,135.167 103.833,134.833 104.5,134.5C 105.456,139.198 107.289,143.532 110,147.5C 110.769,142.088 112.269,136.921 114.5,132C 113.906,131.536 113.239,131.369 112.5,131.5C 116.233,129.589 120.233,128.256 124.5,127.5C 135.513,125.281 146.68,123.948 158,123.5C 165.867,123.897 173.7,124.564 181.5,125.5 Z"/></g>
<g><path style="opacity:1" fill="#e4e3ef" d="M 84.5,61.5 C 79.2312,65.5926 74.0646,69.926 69,74.5C 68.3083,75.4368 68.475,76.1034 69.5,76.5C 67.205,79.2971 64.705,81.9638 62,84.5C 53.3916,94.9972 50.0582,106.997 52,120.5C 52.5359,122.869 53.7026,124.869 55.5,126.5C 63.1109,127.263 70.4442,125.763 77.5,122C 79.9563,119.841 79.2896,119.008 75.5,119.5C 80.5673,118.176 85.734,118.176 91,119.5C 91.4455,125.18 91.9455,130.846 92.5,136.5C 78.7929,137.656 65.7929,135.156 53.5,129C 51.8767,126.92 50.3767,124.754 49,122.5C 47.3934,104.133 53.3934,88.8 67,76.5C 67.5281,75.184 67.0281,74.5173 65.5,74.5C 69.2486,71.112 73.2486,67.9454 77.5,65C 79.5766,63.295 81.91,62.1283 84.5,61.5 Z"/></g>
<g><path style="opacity:1" fill="#64452d" d="M 131.5,127.5 C 136.179,127.334 140.845,127.501 145.5,128C 148,128.885 150.333,130.052 152.5,131.5C 151.833,131.833 151.167,132.167 150.5,132.5C 145.886,130.962 141.219,129.628 136.5,128.5C 133.49,129.348 130.49,129.848 127.5,130C 129.066,129.392 130.4,128.558 131.5,127.5 Z"/></g>
<g><path style="opacity:1" fill="#fcd5b0" d="M 247.5,138.5 C 248.75,138.577 249.583,139.244 250,140.5C 250.167,142.667 250.333,144.833 250.5,147C 249.507,157.489 249.34,167.989 250,178.5C 250.924,180.495 252.09,180.828 253.5,179.5C 254.836,177.99 256.003,176.323 257,174.5C 258.61,168.893 259.943,163.226 261,157.5C 261.572,154.293 263.405,152.626 266.5,152.5C 266.666,159.841 266.5,167.174 266,174.5C 265.143,179.795 262.476,183.795 258,186.5C 257.942,189.559 256.609,191.892 254,193.5C 251.432,205.749 248.599,217.916 245.5,230C 247.039,233.88 248.373,237.713 249.5,241.5C 249.817,244.572 249.484,247.572 248.5,250.5C 241.777,253.15 234.777,254.15 227.5,253.5C 227.31,250.145 226.31,247.145 224.5,244.5C 224.075,239.398 223.075,234.398 221.5,229.5C 217.576,228.536 214.243,226.536 211.5,223.5C 210.26,214.702 205.76,208.035 198,203.5C 196.922,199.202 196.089,194.869 195.5,190.5C 196.5,190.5 197.5,190.5 198.5,190.5C 198.343,186.727 196.676,185.727 193.5,187.5C 192.322,185.662 192.655,183.995 194.5,182.5C 196.401,184.874 198.735,185.041 201.5,183C 202.694,180.342 201.694,179.176 198.5,179.5C 201.04,178.639 203.04,176.972 204.5,174.5C 207.274,173.199 210.107,172.199 213,171.5C 217.889,173.029 222.722,174.695 227.5,176.5C 226.777,169.162 225.944,161.829 225,154.5C 222.171,146.578 221.838,138.578 224,130.5C 226,127.833 228,127.833 230,130.5C 232.878,144.133 235.545,157.799 238,171.5C 238.915,172.328 239.581,173.328 240,174.5C 241.127,171.623 241.794,168.623 242,165.5C 242.333,158.5 242.667,151.5 243,144.5C 243.332,141.457 244.832,139.457 247.5,138.5 Z"/></g>
<g><path style="opacity:1" fill="#4e301c" d="M 187.5,131.5 C 186.5,132.167 185.5,132.833 184.5,133.5C 181.538,134.061 178.705,135.061 176,136.5C 174.437,135.898 174.604,135.065 176.5,134C 179.87,131.922 183.537,131.089 187.5,131.5 Z"/></g>
<g><path style="opacity:1" fill="#8b6a4f" d="M 187.5,131.5 C 190.09,132.128 192.423,133.295 194.5,135C 191.299,134.227 187.965,133.727 184.5,133.5C 185.5,132.833 186.5,132.167 187.5,131.5 Z"/></g>
<g><path style="opacity:1" fill="#402019" d="M 150.5,142.5 C 150.5,142.833 150.5,143.167 150.5,143.5C 150.5,144.167 150.167,144.5 149.5,144.5C 149.5,143.833 149.167,143.5 148.5,143.5C 147.652,142.375 146.652,142.375 145.5,143.5C 145.027,142.094 144.027,141.427 142.5,141.5C 144.17,138.837 143.503,137.17 140.5,136.5C 137.696,135.362 134.696,135.195 131.5,136C 130.529,137.481 129.196,138.315 127.5,138.5C 132.294,132.856 137.96,132.023 144.5,136C 146.734,138.063 148.734,140.229 150.5,142.5 Z"/></g>
<g><path style="opacity:1" fill="#090301" d="M 140.5,136.5 C 143.503,137.17 144.17,138.837 142.5,141.5C 141.833,141.5 141.5,141.833 141.5,142.5C 139.449,145.147 137.449,145.147 135.5,142.5C 135.5,140.5 135.5,138.5 135.5,136.5C 137.167,136.5 138.833,136.5 140.5,136.5 Z"/></g>
<g><path style="opacity:1" fill="#e4af8f" d="M 150.5,142.5 C 148.734,140.229 146.734,138.063 144.5,136C 137.96,132.023 132.294,132.856 127.5,138.5C 126.5,139.167 125.5,139.833 124.5,140.5C 125.167,138.5 125.833,136.5 126.5,134.5C 133.883,130.228 141.05,130.561 148,135.5C 149.411,137.65 150.245,139.984 150.5,142.5 Z"/></g>
<g><path style="opacity:1" fill="#2a1411" d="M 140.5,136.5 C 138.833,136.5 137.167,136.5 135.5,136.5C 135.5,138.5 135.5,140.5 135.5,142.5C 134.566,141.432 134.232,140.099 134.5,138.5C 132.62,138.229 131.287,138.896 130.5,140.5C 129.549,141.919 129.216,143.585 129.5,145.5C 129.158,146.338 128.492,146.672 127.5,146.5C 125.704,145.207 124.037,143.707 122.5,142C 123.416,141.722 124.082,141.222 124.5,140.5C 125.5,139.833 126.5,139.167 127.5,138.5C 129.196,138.315 130.529,137.481 131.5,136C 134.696,135.195 137.696,135.362 140.5,136.5 Z"/></g>
<g><path style="opacity:1" fill="#4a3528" d="M 112.5,131.5 C 113.239,131.369 113.906,131.536 114.5,132C 112.269,136.921 110.769,142.088 110,147.5C 107.289,143.532 105.456,139.198 104.5,134.5C 107.023,133.199 109.69,132.199 112.5,131.5 Z"/></g>
<g><path style="opacity:1" fill="#603820" d="M 181.5,141.5 C 185.396,141.612 189.063,142.612 192.5,144.5C 193.554,144.32 194.554,143.987 195.5,143.5C 196.604,144.631 196.271,145.465 194.5,146C 195.833,146.333 197.167,146.667 198.5,147C 195.833,147.667 193.167,147.667 190.5,147C 185.222,143.297 180.388,143.797 176,148.5C 175.333,147.833 175.333,147.167 176,146.5C 177.812,144.7 179.645,143.033 181.5,141.5 Z"/></g>
<g><path style="opacity:1" fill="#eae1dd" d="M 142.5,141.5 C 144.027,141.427 145.027,142.094 145.5,143.5C 144.817,145.176 143.483,145.843 141.5,145.5C 141.5,144.5 141.5,143.5 141.5,142.5C 141.5,141.833 141.833,141.5 142.5,141.5 Z"/></g>
<g><path style="opacity:1" fill="#b49682" d="M 150.5,143.5 C 152.519,144.538 152.853,145.872 151.5,147.5C 150.599,146.71 149.932,145.71 149.5,144.5C 150.167,144.5 150.5,144.167 150.5,143.5 Z"/></g>
<g><path style="opacity:1" fill="#907b6c" d="M 129.5,145.5 C 133.06,147.283 133.06,148.283 129.5,148.5C 128.833,147.833 128.167,147.167 127.5,146.5C 128.492,146.672 129.158,146.338 129.5,145.5 Z"/></g>
<g><path style="opacity:1" fill="#724f43" d="M 135.5,142.5 C 137.449,145.147 139.449,145.147 141.5,142.5C 141.5,143.5 141.5,144.5 141.5,145.5C 143.483,145.843 144.817,145.176 145.5,143.5C 146.652,142.375 147.652,142.375 148.5,143.5C 145.633,148.596 141.3,150.429 135.5,149C 132.892,146.602 131.225,143.769 130.5,140.5C 131.287,138.896 132.62,138.229 134.5,138.5C 134.232,140.099 134.566,141.432 135.5,142.5 Z"/></g>
<g><path style="opacity:1" fill="#f4deca" d="M 130.5,140.5 C 131.225,143.769 132.892,146.602 135.5,149C 141.3,150.429 145.633,148.596 148.5,143.5C 149.167,143.5 149.5,143.833 149.5,144.5C 149.932,145.71 150.599,146.71 151.5,147.5C 149.489,150.666 146.489,152 142.5,151.5C 138.804,151.217 135.137,150.717 131.5,150C 130.584,149.722 129.918,149.222 129.5,148.5C 133.06,148.283 133.06,147.283 129.5,145.5C 129.216,143.585 129.549,141.919 130.5,140.5 Z"/></g>
<g><path style="opacity:1" fill="#4e3b33" d="M 116.5,178.5 C 114.598,179.511 112.598,179.678 110.5,179C 105.267,173.374 101.434,166.874 99,159.5C 98.5172,160.448 98.3505,161.448 98.5,162.5C 98.1667,162.5 97.8333,162.5 97.5,162.5C 97.4828,160.435 97.1495,158.435 96.5,156.5C 96.3505,155.448 96.5172,154.448 97,153.5C 100.352,157.26 104.519,159.593 109.5,160.5C 111.81,166.488 114.143,172.488 116.5,178.5 Z"/></g>
<g><path style="opacity:1" fill="#fbe0c6" d="M 247.5,138.5 C 248.568,137.566 249.901,137.232 251.5,137.5C 250.851,151.873 251.518,165.873 253.5,179.5C 252.09,180.828 250.924,180.495 250,178.5C 249.34,167.989 249.507,157.489 250.5,147C 250.333,144.833 250.167,142.667 250,140.5C 249.583,139.244 248.75,138.577 247.5,138.5 Z"/></g>
<g><path style="opacity:1" fill="#f6b992" d="M 172.5,154.5 C 175.143,157.775 176.643,161.442 177,165.5C 174.823,167.527 172.323,168.861 169.5,169.5C 165.823,169.156 163.823,167.156 163.5,163.5C 166.469,164.329 169.469,164.495 172.5,164C 173.138,160.929 173.138,157.763 172.5,154.5 Z"/></g>
<g><path style="opacity:1" fill="#b8afab" d="M 97.5,162.5 C 97.8333,162.5 98.1667,162.5 98.5,162.5C 99.3739,165.789 100.041,169.123 100.5,172.5C 98.7234,169.495 97.7234,166.162 97.5,162.5 Z"/></g>
<g><path style="opacity:1" fill="#f7e9f7" d="M 12.5,158.5 C 11.6084,170.474 11.2751,182.474 11.5,194.5C 10.7784,194.082 10.2784,193.416 10,192.5C 9.25134,181.468 9.58467,170.468 11,159.5C 11.3826,158.944 11.8826,158.611 12.5,158.5 Z"/></g>
<g><path style="opacity:1" fill="#36221b" d="M 116.5,178.5 C 118.218,180.223 119.551,182.223 120.5,184.5C 119.833,184.5 119.5,184.833 119.5,185.5C 115.662,185.978 112.329,184.978 109.5,182.5C 107.629,182.141 106.129,181.141 105,179.5C 103.476,177.102 101.976,174.769 100.5,172.5C 100.041,169.123 99.3739,165.789 98.5,162.5C 98.3505,161.448 98.5172,160.448 99,159.5C 101.434,166.874 105.267,173.374 110.5,179C 112.598,179.678 114.598,179.511 116.5,178.5 Z"/></g>
<g><path style="opacity:1" fill="#f9e6f8" d="M 16.5,155.5 C 14.8226,167.761 14.156,180.094 14.5,192.5C 13.3427,183.676 13.176,174.676 14,165.5C 14.738,162.009 15.5713,158.675 16.5,155.5 Z"/></g>
<g><path style="opacity:1" fill="#fdcaae" d="M 170.5,191.5 C 177.421,186.677 181.588,180.011 183,171.5C 180.913,172.397 178.746,173.064 176.5,173.5C 166.833,173.5 157.167,173.5 147.5,173.5C 146.167,173.5 145.5,174.167 145.5,175.5C 147.594,178.097 148.927,181.097 149.5,184.5C 145.029,180.891 142.695,176.224 142.5,170.5C 149.399,171.914 156.399,172.581 163.5,172.5C 170.624,172.581 177.624,171.914 184.5,170.5C 184.198,178.365 181.198,185.032 175.5,190.5C 173.929,191.309 172.262,191.643 170.5,191.5 Z"/></g>
<g><path style="opacity:1" fill="#9e2659" d="M 147.5,173.5 C 148.833,174.833 150.167,176.167 151.5,177.5C 152.306,178.728 153.306,179.728 154.5,180.5C 153.749,181.573 152.749,181.74 151.5,181C 149.63,178.96 147.63,177.127 145.5,175.5C 145.5,174.167 146.167,173.5 147.5,173.5 Z"/></g>
<g><path style="opacity:1" fill="#ee9999" d="M 147.5,173.5 C 157.167,173.5 166.833,173.5 176.5,173.5C 169.679,174.329 162.679,174.829 155.5,175C 161.072,176.351 166.738,176.851 172.5,176.5C 172.5,176.833 172.5,177.167 172.5,177.5C 166.833,177.5 161.167,177.5 155.5,177.5C 154.167,176.167 152.833,176.167 151.5,177.5C 150.167,176.167 148.833,174.833 147.5,173.5 Z"/></g>
<g><path style="opacity:1" fill="#e88487" d="M 170.5,191.5 C 162.397,192.273 155.397,189.94 149.5,184.5C 148.927,181.097 147.594,178.097 145.5,175.5C 147.63,177.127 149.63,178.96 151.5,181C 152.749,181.74 153.749,181.573 154.5,180.5C 155.058,182.593 156.391,184.093 158.5,185C 164.196,185.83 169.863,185.663 175.5,184.5C 176.833,181.833 178.167,179.167 179.5,176.5C 177.229,175.637 174.895,175.637 172.5,176.5C 166.738,176.851 161.072,176.351 155.5,175C 162.679,174.829 169.679,174.329 176.5,173.5C 178.746,173.064 180.913,172.397 183,171.5C 181.588,180.011 177.421,186.677 170.5,191.5 Z"/></g>
<g><path style="opacity:1" fill="#b93525" d="M 198.5,179.5 C 201.694,179.176 202.694,180.342 201.5,183C 198.735,185.041 196.401,184.874 194.5,182.5C 195.436,181.026 196.77,180.026 198.5,179.5 Z"/></g>
<g><path style="opacity:1" fill="#fefbf8" d="M 210.5,181.5 C 211.552,181.351 212.552,181.517 213.5,182C 216.509,184.402 219.342,186.902 222,189.5C 223.356,199.474 219.189,202.974 209.5,200C 204.326,197.3 201.993,192.967 202.5,187C 204.554,184.087 207.22,182.254 210.5,181.5 Z"/></g>
<g><path style="opacity:1" fill="#f8cad2" d="M 154.5,180.5 C 153.306,179.728 152.306,178.728 151.5,177.5C 152.833,176.167 154.167,176.167 155.5,177.5C 154.761,177.369 154.094,177.536 153.5,178C 155.635,178.759 156.968,180.259 157.5,182.5C 163.057,184.988 168.724,185.154 174.5,183C 176.155,181.556 176.822,179.722 176.5,177.5C 175.167,177.5 173.833,177.5 172.5,177.5C 172.5,177.167 172.5,176.833 172.5,176.5C 174.895,175.637 177.229,175.637 179.5,176.5C 178.167,179.167 176.833,181.833 175.5,184.5C 169.863,185.663 164.196,185.83 158.5,185C 156.391,184.093 155.058,182.593 154.5,180.5 Z"/></g>
<g><path style="opacity:1" fill="#fef9fa" d="M 155.5,177.5 C 161.167,177.5 166.833,177.5 172.5,177.5C 173.833,177.5 175.167,177.5 176.5,177.5C 176.822,179.722 176.155,181.556 174.5,183C 168.724,185.154 163.057,184.988 157.5,182.5C 156.968,180.259 155.635,178.759 153.5,178C 154.094,177.536 154.761,177.369 155.5,177.5 Z"/></g>
<g><path style="opacity:1" fill="#6a344d" d="M 109.5,182.5 C 112.329,184.978 115.662,185.978 119.5,185.5C 119.5,186.833 119.5,188.167 119.5,189.5C 116.833,189.5 114.167,189.5 111.5,189.5C 111.179,187.952 110.179,187.285 108.5,187.5C 109.301,185.958 109.634,184.292 109.5,182.5 Z"/></g>
<g><path style="opacity:1" fill="#fcf8f6" d="M 120.5,185.5 C 122.716,186.203 124.549,187.536 126,189.5C 127.29,193.73 127.79,198.064 127.5,202.5C 125.114,202.741 123.114,202.075 121.5,200.5C 121.249,195.493 120.916,190.493 120.5,185.5 Z"/></g>
<g><path style="opacity:1" fill="#b33728" d="M 195.5,190.5 C 195.167,189.5 194.5,188.833 193.5,188.5C 193.5,188.167 193.5,187.833 193.5,187.5C 196.676,185.727 198.343,186.727 198.5,190.5C 197.5,190.5 196.5,190.5 195.5,190.5 Z"/></g>
<g><path style="opacity:1" fill="#4c3b35" d="M 111.5,189.5 C 114.167,189.5 116.833,189.5 119.5,189.5C 119.646,193.387 120.313,197.054 121.5,200.5C 122.289,217.408 128.956,231.408 141.5,242.5C 151.98,254.104 160.48,267.104 167,281.5C 169.435,287.967 170.935,294.634 171.5,301.5C 169.916,297.385 167.249,293.885 163.5,291C 150.822,284.332 138.822,276.665 127.5,268C 103.133,245.663 97.7994,219.496 111.5,189.5 Z"/></g>
<g><path style="opacity:1" fill="#fef1e4" d="M 193.5,188.5 C 194.5,188.833 195.167,189.5 195.5,190.5C 196.089,194.869 196.922,199.202 198,203.5C 205.76,208.035 210.26,214.702 211.5,223.5C 207.704,219.511 204.871,214.845 203,209.5C 200.815,208.072 198.815,206.405 197,204.5C 195.074,199.337 193.907,194.003 193.5,188.5 Z"/></g>
<g><path style="opacity:1" fill="#f9c7a3" d="M 229.5,192.5 C 234.059,192.944 238.059,194.777 241.5,198C 237.402,207.96 233.902,218.126 231,228.5C 229.954,227.228 229.454,225.728 229.5,224C 230.648,220.205 231.648,216.371 232.5,212.5C 230.222,206.048 229.222,199.381 229.5,192.5 Z"/></g>
<g><path style="opacity:1" fill="#311e16" d="M 108.5,187.5 C 110.179,187.285 111.179,187.952 111.5,189.5C 97.7994,219.496 103.133,245.663 127.5,268C 138.822,276.665 150.822,284.332 163.5,291C 167.249,293.885 169.916,297.385 171.5,301.5C 171.5,301.833 171.5,302.167 171.5,302.5C 171.806,305.385 171.473,308.052 170.5,310.5C 166.003,305.17 161.003,300.337 155.5,296C 137.218,285.391 121.718,271.557 109,254.5C 110.619,267.238 116.119,278.071 125.5,287C 122.902,286.874 120.569,285.874 118.5,284C 97.1156,265.76 88.9489,242.927 94,215.5C 97.2579,208.649 100.758,201.982 104.5,195.5C 106.341,193.151 107.674,190.485 108.5,187.5 Z"/></g>
<g><path style="opacity:1" fill="#f6b48f" d="M 164.5,207.5 C 164.567,208.959 164.234,210.292 163.5,211.5C 157.856,212.66 152.189,213.994 146.5,215.5C 140.678,213.893 135.011,211.893 129.5,209.5C 128.382,203.916 128.215,198.249 129,192.5C 133.761,195.992 138.928,198.825 144.5,201C 151.305,203.371 157.972,205.538 164.5,207.5 Z"/></g>
<g><path style="opacity:1" fill="#70625f" d="M 120.5,184.5 C 120.5,184.833 120.5,185.167 120.5,185.5C 120.916,190.493 121.249,195.493 121.5,200.5C 120.313,197.054 119.646,193.387 119.5,189.5C 119.5,188.167 119.5,186.833 119.5,185.5C 119.5,184.833 119.833,184.5 120.5,184.5 Z"/></g>
<g><path style="opacity:1" fill="#dad1d7" d="M 164.5,207.5 C 164.833,207.5 165.167,207.5 165.5,207.5C 167.888,208.349 170.221,209.349 172.5,210.5C 170.066,211.985 167.733,213.652 165.5,215.5C 164.833,215.5 164.167,215.5 163.5,215.5C 163.5,214.167 163.5,212.833 163.5,211.5C 164.234,210.292 164.567,208.959 164.5,207.5 Z"/></g>
<g><path style="opacity:1" fill="#e9c7e9" d="M 284.5,219.5 C 279.67,232.164 274.003,244.497 267.5,256.5C 264.591,259.981 261.925,263.648 259.5,267.5C 249.722,278.949 238.722,288.949 226.5,297.5C 221.477,300.678 216.143,303.345 210.5,305.5C 209.662,305.158 209.328,304.492 209.5,303.5C 211.364,301.986 213.364,300.653 215.5,299.5C 220.312,298.39 224.646,296.223 228.5,293C 232.874,288.301 237.874,284.301 243.5,281C 244.883,279.729 245.883,278.229 246.5,276.5C 251.178,271.821 255.511,266.821 259.5,261.5C 260.167,260.167 260.833,258.833 261.5,257.5C 265.897,252.26 269.73,246.593 273,240.5C 280.102,225.032 284.435,208.698 286,191.5C 288.986,138.59 268.819,97.2564 225.5,67.5C 224.739,66.6091 223.739,65.9424 222.5,65.5C 221.614,64.675 221.281,63.675 221.5,62.5C 255.191,81.733 276.691,110.4 286,148.5C 290.895,172.283 290.395,195.95 284.5,219.5 Z"/></g>
<g><path style="opacity:1" fill="#fbd6b3" d="M 163.5,211.5 C 163.5,212.833 163.5,214.167 163.5,215.5C 162.364,217.046 161.698,218.879 161.5,221C 162.423,226.523 163.423,232.023 164.5,237.5C 162.051,238.057 159.718,238.057 157.5,237.5C 156.288,231.52 155.121,225.52 154,219.5C 151.367,218.248 148.867,216.914 146.5,215.5C 152.189,213.994 157.856,212.66 163.5,211.5 Z"/></g>
<g><path style="opacity:1" fill="#e6e4ee" d="M 121.5,200.5 C 123.114,202.075 125.114,202.741 127.5,202.5C 126.99,205.388 127.656,207.721 129.5,209.5C 138.189,218.355 146.689,227.355 155,236.5C 155.747,238.928 154.914,240.594 152.5,241.5C 148.629,241.185 144.962,241.518 141.5,242.5C 128.956,231.408 122.289,217.408 121.5,200.5 Z"/></g>
<g><path style="opacity:1" fill="#5e5450" d="M 108.5,187.5 C 107.674,190.485 106.341,193.151 104.5,195.5C 95.8873,203.794 89.3873,214.127 85,226.5C 84.3979,235.58 84.7312,244.58 86,253.5C 84.2619,248.976 83.0952,244.31 82.5,239.5C 82.5,236.167 82.5,232.833 82.5,229.5C 83.2328,223.802 85.0662,218.469 88,213.5C 94.13,204.219 100.963,195.552 108.5,187.5 Z"/></g>
<g><path style="opacity:1" fill="#f4f3f8" d="M 172.5,210.5 C 174.192,215.217 176.192,219.884 178.5,224.5C 185.952,226.527 193.286,228.527 200.5,230.5C 199.448,230.351 198.448,230.517 197.5,231C 208.5,234.215 215,241.382 217,252.5C 217.667,262.167 217.667,271.833 217,281.5C 216.185,279.377 215.185,277.377 214,275.5C 213.833,276 213.667,276.5 213.5,277C 215.276,281.716 216.609,286.55 217.5,291.5C 217.436,294.35 216.77,297.017 215.5,299.5C 213.364,300.653 211.364,301.986 209.5,303.5C 207.287,304.773 204.954,305.773 202.5,306.5C 202.923,305.735 203.257,304.902 203.5,304C 202.066,298.561 200.899,293.061 200,287.5C 199.272,284.813 198.105,282.48 196.5,280.5C 196.5,278.5 196.5,276.5 196.5,274.5C 194.5,274.5 192.5,274.5 190.5,274.5C 191.568,273.566 192.901,273.232 194.5,273.5C 191.427,264.233 187.594,255.233 183,246.5C 182.329,245.748 181.496,245.414 180.5,245.5C 180.771,243.62 180.104,242.287 178.5,241.5C 177.393,239.153 175.726,238.82 173.5,240.5C 174.589,238.883 176.256,238.05 178.5,238C 176.978,236.478 175.478,234.978 174,233.5C 171.485,234.872 168.818,235.872 166,236.5C 163.559,229.384 163.393,222.384 165.5,215.5C 167.733,213.652 170.066,211.985 172.5,210.5 Z"/></g>
<g><path style="opacity:1" fill="#fdfafa" d="M 129.5,209.5 C 135.011,211.893 140.678,213.893 146.5,215.5C 148.867,216.914 151.367,218.248 154,219.5C 155.121,225.52 156.288,231.52 157.5,237.5C 159.718,238.057 162.051,238.057 164.5,237.5C 163.423,232.023 162.423,226.523 161.5,221C 161.698,218.879 162.364,217.046 163.5,215.5C 164.167,215.5 164.833,215.5 165.5,215.5C 163.393,222.384 163.559,229.384 166,236.5C 168.818,235.872 171.485,234.872 174,233.5C 175.478,234.978 176.978,236.478 178.5,238C 176.256,238.05 174.589,238.883 173.5,240.5C 171.756,245.745 173.423,247.745 178.5,246.5C 179.167,246.167 179.833,245.833 180.5,245.5C 181.496,245.414 182.329,245.748 183,246.5C 187.594,255.233 191.427,264.233 194.5,273.5C 192.901,273.232 191.568,273.566 190.5,274.5C 189.833,274.5 189.5,274.833 189.5,275.5C 187.983,277.936 188.316,280.102 190.5,282C 192.535,282.599 194.201,282.099 195.5,280.5C 195.833,280.5 196.167,280.5 196.5,280.5C 198.105,282.48 199.272,284.813 200,287.5C 200.899,293.061 202.066,298.561 203.5,304C 203.257,304.902 202.923,305.735 202.5,306.5C 195.176,309.587 187.51,311.92 179.5,313.5C 177.663,305.153 175.663,296.819 173.5,288.5C 176.167,288.5 178.833,288.5 181.5,288.5C 181.5,287.5 181.5,286.5 181.5,285.5C 181.771,283.62 181.104,282.287 179.5,281.5C 178.903,280.861 178.07,280.528 177,280.5C 175.301,280.387 174.134,281.053 173.5,282.5C 172.71,283.609 172.21,284.942 172,286.5C 168.455,275.579 163.955,265.079 158.5,255C 160.382,254.802 162.048,254.302 163.5,253.5C 166.587,249.846 165.92,247.18 161.5,245.5C 159.927,245.752 158.594,246.418 157.5,247.5C 156.603,248.598 155.77,248.598 155,247.5C 153.878,245.593 153.045,243.593 152.5,241.5C 154.914,240.594 155.747,238.928 155,236.5C 146.689,227.355 138.189,218.355 129.5,209.5 Z"/></g>
<g><path style="opacity:1" fill="#f2f0f3" d="M 104.5,195.5 C 100.758,201.982 97.2579,208.649 94,215.5C 88.9489,242.927 97.1156,265.76 118.5,284C 120.569,285.874 122.902,286.874 125.5,287C 116.119,278.071 110.619,267.238 109,254.5C 121.718,271.557 137.218,285.391 155.5,296C 161.003,300.337 166.003,305.17 170.5,310.5C 170.783,311.289 171.283,311.956 172,312.5C 172.808,308.973 172.641,305.64 171.5,302.5C 171.5,302.167 171.5,301.833 171.5,301.5C 170.935,294.634 169.435,287.967 167,281.5C 160.48,267.104 151.98,254.104 141.5,242.5C 144.962,241.518 148.629,241.185 152.5,241.5C 153.045,243.593 153.878,245.593 155,247.5C 155.77,248.598 156.603,248.598 157.5,247.5C 157.167,251.833 159.167,253.833 163.5,253.5C 162.048,254.302 160.382,254.802 158.5,255C 163.955,265.079 168.455,275.579 172,286.5C 172.21,284.942 172.71,283.609 173.5,282.5C 173.341,287.252 175.341,288.586 179.5,286.5C 180.167,286.167 180.833,285.833 181.5,285.5C 181.5,286.5 181.5,287.5 181.5,288.5C 178.833,288.5 176.167,288.5 173.5,288.5C 175.663,296.819 177.663,305.153 179.5,313.5C 166.457,317.047 153.123,318.381 139.5,317.5C 138.791,316.596 137.791,316.263 136.5,316.5C 131.957,312.123 127.957,307.29 124.5,302C 122.833,301.667 121.167,301.333 119.5,301C 118.498,299.328 117.332,298.162 116,297.5C 114.057,297.959 112.724,296.959 112,294.5C 111.586,294.957 111.086,295.291 110.5,295.5C 108.453,293.985 106.119,293.151 103.5,293C 104.641,292.259 104.641,291.425 103.5,290.5C 104.5,289.167 105.5,287.833 106.5,286.5C 106.167,286.167 105.833,285.833 105.5,285.5C 101.691,288.142 98.0239,290.975 94.5,294C 89.1146,294.214 83.7813,294.714 78.5,295.5C 77.3777,294.37 76.0443,293.703 74.5,293.5C 66.1069,289.135 59.1069,283.135 53.5,275.5C 57.2343,271.042 60.7343,266.375 64,261.5C 65.8063,255.747 67.8063,250.08 70,244.5C 72.9781,240.012 77.1448,238.345 82.5,239.5C 83.0952,244.31 84.2619,248.976 86,253.5C 84.7312,244.58 84.3979,235.58 85,226.5C 89.3873,214.127 95.8873,203.794 104.5,195.5 Z"/></g>
<g><path style="opacity:1" fill="#f8eaf8" d="M 284.5,219.5 C 282.316,230.88 278.149,241.547 272,251.5C 270.951,253.618 269.451,255.284 267.5,256.5C 274.003,244.497 279.67,232.164 284.5,219.5 Z"/></g>
<g><path style="opacity:1" fill="#a13e38" d="M 178.5,241.5 C 177.167,241.5 175.833,241.5 174.5,241.5C 174.197,244.588 175.53,246.254 178.5,246.5C 173.423,247.745 171.756,245.745 173.5,240.5C 175.726,238.82 177.393,239.153 178.5,241.5 Z"/></g>
<g><path style="opacity:1" fill="#ab0706" d="M 178.5,241.5 C 178.5,243.167 178.5,244.833 178.5,246.5C 175.53,246.254 174.197,244.588 174.5,241.5C 175.833,241.5 177.167,241.5 178.5,241.5 Z"/></g>
<g><path style="opacity:1" fill="#a43b34" d="M 178.5,241.5 C 180.104,242.287 180.771,243.62 180.5,245.5C 179.833,245.833 179.167,246.167 178.5,246.5C 178.5,244.833 178.5,243.167 178.5,241.5 Z"/></g>
<g><path style="opacity:1" fill="#6d5851" d="M 116.5,243.5 C 119.136,245.959 121.969,248.293 125,250.5C 126.168,249.491 127.335,248.491 128.5,247.5C 129.62,248.833 130.953,249.333 132.5,249C 133.103,247.175 133.77,245.341 134.5,243.5C 140.823,250.657 146.156,258.49 150.5,267C 150.167,267.5 149.833,268 149.5,268.5C 146.214,266.549 143.214,264.215 140.5,261.5C 139.833,262.5 139.167,263.5 138.5,264.5C 136.668,263.752 135.001,262.752 133.5,261.5C 132.246,263.259 132.579,264.759 134.5,266C 133.833,266.667 133.167,266.667 132.5,266C 127.333,260.167 122.167,254.333 117,248.5C 116.506,246.866 116.34,245.199 116.5,243.5 Z"/></g>
<g><path style="opacity:1" fill="#a93228" d="M 163.5,253.5 C 159.167,253.833 157.167,251.833 157.5,247.5C 158.594,246.418 159.927,245.752 161.5,245.5C 165.92,247.18 166.587,249.846 163.5,253.5 Z"/></g>
<g><path style="opacity:1" fill="#fdfcfd" d="M 259.5,261.5 C 255.511,266.821 251.178,271.821 246.5,276.5C 238.685,276.711 231.019,275.877 223.5,274C 222.183,269.439 221.183,264.772 220.5,260C 220.625,258.373 221.125,256.873 222,255.5C 225.762,254.48 229.596,254.48 233.5,255.5C 240.569,254.947 247.403,253.613 254,251.5C 257.754,253.759 259.587,257.093 259.5,261.5 Z"/></g>
<g><path style="opacity:1" fill="#e3e2ed" d="M 82.5,229.5 C 82.5,232.833 82.5,236.167 82.5,239.5C 77.1448,238.345 72.9781,240.012 70,244.5C 67.8063,250.08 65.8063,255.747 64,261.5C 60.7343,266.375 57.2343,271.042 53.5,275.5C 51.9731,275.573 50.9731,274.906 50.5,273.5C 55.126,269.027 59.2927,264.027 63,258.5C 64.0846,250.791 67.2512,244.124 72.5,238.5C 75.4377,237.511 78.4377,236.844 81.5,236.5C 81.1984,233.941 81.5318,231.607 82.5,229.5 Z"/></g>
<g><path style="opacity:1" fill="#e8b9b9" d="M 189.5,275.5 C 189.5,274.833 189.833,274.5 190.5,274.5C 192.5,274.5 194.5,274.5 196.5,274.5C 196.5,276.5 196.5,278.5 196.5,280.5C 196.167,280.5 195.833,280.5 195.5,280.5C 195.768,278.901 195.434,277.568 194.5,276.5C 193.081,275.549 191.415,275.216 189.5,275.5 Z"/></g>
<g><path style="opacity:1" fill="#e5e2ef" d="M 200.5,230.5 C 209.136,232.645 215.136,237.812 218.5,246C 220.775,246.405 222.775,245.905 224.5,244.5C 226.31,247.145 227.31,250.145 227.5,253.5C 234.777,254.15 241.777,253.15 248.5,250.5C 249.484,247.572 249.817,244.572 249.5,241.5C 252.025,242.681 254.525,244.014 257,245.5C 259.332,249.168 260.832,253.168 261.5,257.5C 260.833,258.833 260.167,260.167 259.5,261.5C 259.587,257.093 257.754,253.759 254,251.5C 247.403,253.613 240.569,254.947 233.5,255.5C 229.596,254.48 225.762,254.48 222,255.5C 221.125,256.873 220.625,258.373 220.5,260C 221.183,264.772 222.183,269.439 223.5,274C 231.019,275.877 238.685,276.711 246.5,276.5C 245.883,278.229 244.883,279.729 243.5,281C 237.874,284.301 232.874,288.301 228.5,293C 224.646,296.223 220.312,298.39 215.5,299.5C 216.77,297.017 217.436,294.35 217.5,291.5C 216.609,286.55 215.276,281.716 213.5,277C 213.667,276.5 213.833,276 214,275.5C 215.185,277.377 216.185,279.377 217,281.5C 217.667,271.833 217.667,262.167 217,252.5C 215,241.382 208.5,234.215 197.5,231C 198.448,230.517 199.448,230.351 200.5,230.5 Z"/></g>
<g><path style="opacity:1" fill="#f9ebf8" d="M 259.5,267.5 C 251.023,280.312 240.023,290.312 226.5,297.5C 238.722,288.949 249.722,278.949 259.5,267.5 Z"/></g>
<g><path style="opacity:1" fill="#98221d" d="M 189.5,275.5 C 191.415,275.216 193.081,275.549 194.5,276.5C 195.434,277.568 195.768,278.901 195.5,280.5C 194.201,282.099 192.535,282.599 190.5,282C 188.316,280.102 187.983,277.936 189.5,275.5 Z"/></g>
<g><path style="opacity:1" fill="#b30403" d="M 194.5,276.5 C 194.5,277.833 194.5,279.167 194.5,280.5C 193.167,280.5 191.833,280.5 190.5,280.5C 190.5,279.167 190.5,277.833 190.5,276.5C 191.833,276.5 193.167,276.5 194.5,276.5 Z"/></g>
<g><path style="opacity:1" fill="#a1322c" d="M 179.5,281.5 C 178.167,281.5 176.833,281.5 175.5,281.5C 174.756,284.95 176.09,286.616 179.5,286.5C 175.341,288.586 173.341,287.252 173.5,282.5C 174.134,281.053 175.301,280.387 177,280.5C 178.07,280.528 178.903,280.861 179.5,281.5 Z"/></g>
<g><path style="opacity:1" fill="#af0505" d="M 179.5,281.5 C 179.5,283.167 179.5,284.833 179.5,286.5C 176.09,286.616 174.756,284.95 175.5,281.5C 176.833,281.5 178.167,281.5 179.5,281.5 Z"/></g>
<g><path style="opacity:1" fill="#9e302a" d="M 179.5,281.5 C 181.104,282.287 181.771,283.62 181.5,285.5C 180.833,285.833 180.167,286.167 179.5,286.5C 179.5,284.833 179.5,283.167 179.5,281.5 Z"/></g>
<g><path style="opacity:1" fill="#e7e2f0" d="M 136.5,316.5 C 123.816,315.435 111.649,312.435 100,307.5C 98.9701,307.836 98.4701,308.503 98.5,309.5C 93.1361,307.159 87.8028,304.826 82.5,302.5C 83.552,302.649 84.552,302.483 85.5,302C 81.6637,299.25 77.9971,296.417 74.5,293.5C 76.0443,293.703 77.3777,294.37 78.5,295.5C 83.7813,294.714 89.1146,294.214 94.5,294C 98.0239,290.975 101.691,288.142 105.5,285.5C 105.833,285.833 106.167,286.167 106.5,286.5C 105.5,287.833 104.5,289.167 103.5,290.5C 104.641,291.425 104.641,292.259 103.5,293C 106.119,293.151 108.453,293.985 110.5,295.5C 111.086,295.291 111.586,294.957 112,294.5C 112.724,296.959 114.057,297.959 116,297.5C 117.332,298.162 118.498,299.328 119.5,301C 121.167,301.333 122.833,301.667 124.5,302C 127.957,307.29 131.957,312.123 136.5,316.5 Z"/></g>
<g><path style="opacity:1" fill="#6b625f" d="M 171.5,302.5 C 172.641,305.64 172.808,308.973 172,312.5C 171.283,311.956 170.783,311.289 170.5,310.5C 171.473,308.052 171.806,305.385 171.5,302.5 Z"/></g>
<g><path style="opacity:1" fill="#e6c4e8" d="M 136.5,316.5 C 137.791,316.263 138.791,316.596 139.5,317.5C 139.5,318.167 139.5,318.833 139.5,319.5C 125.143,318.595 111.476,315.262 98.5,309.5C 98.4701,308.503 98.9701,307.836 100,307.5C 111.649,312.435 123.816,315.435 136.5,316.5 Z"/></g>
<g><path style="opacity:1" fill="#deccde" d="M 209.5,303.5 C 209.328,304.492 209.662,305.158 210.5,305.5C 188.248,316.541 164.581,321.207 139.5,319.5C 139.5,318.833 139.5,318.167 139.5,317.5C 153.123,318.381 166.457,317.047 179.5,313.5C 187.51,311.92 195.176,309.587 202.5,306.5C 204.954,305.773 207.287,304.773 209.5,303.5 Z"/></g>
<g><path style="opacity:1" fill="#e9bee9" d="M 56.5,348.5 C 57.8333,348.5 59.1667,348.5 60.5,348.5C 60.1234,352.673 59.1234,356.673 57.5,360.5C 54.7537,363.187 51.4204,364.02 47.5,363C 46.0203,361.701 45.3536,360.034 45.5,358C 48.1007,348.424 50.7674,338.924 53.5,329.5C 54.8333,329.5 56.1667,329.5 57.5,329.5C 54.1667,338.685 51.5,348.185 49.5,358C 49.5376,361.888 50.7042,362.388 53,359.5C 55.0096,356.14 56.1763,352.473 56.5,348.5 Z"/></g>
<g><path style="opacity:1" fill="#eac1e9" d="M 210.5,360.5 C 210.851,363.238 211.518,365.904 212.5,368.5C 213.325,369.386 214.325,369.719 215.5,369.5C 215.647,364.786 215.314,360.119 214.5,355.5C 216.144,355.286 217.644,355.62 219,356.5C 219.499,360.152 219.665,363.818 219.5,367.5C 217.648,371.76 214.314,373.427 209.5,372.5C 206.455,365.158 204.788,357.491 204.5,349.5C 202.712,349.785 201.045,349.452 199.5,348.5C 200.689,347.571 202.022,347.238 203.5,347.5C 203.5,344.5 203.5,341.5 203.5,338.5C 204.822,338.33 205.989,338.663 207,339.5C 207.495,341.473 207.662,343.473 207.5,345.5C 209.604,345.201 211.604,345.534 213.5,346.5C 212.271,347.281 210.938,347.781 209.5,348C 208.877,352.145 209.21,356.312 210.5,360.5 Z"/></g>
<g><path style="opacity:1" fill="#eabfea" d="M 251.5,337.5 C 253.923,339.658 253.756,341.991 251,344.5C 250.476,350.85 250.642,357.184 251.5,363.5C 249.019,363.677 247.186,362.677 246,360.5C 244.758,354.377 243.258,348.377 241.5,342.5C 242.833,342.5 244.167,342.5 245.5,342.5C 245.272,344.355 245.939,345.188 247.5,345C 248.374,342.177 249.707,339.677 251.5,337.5 Z"/></g>
<g><path style="opacity:1" fill="#ebc0ea" d="M 149.5,351.5 C 148.01,353.28 146.01,353.946 143.5,353.5C 143.071,360.947 143.571,368.281 145,375.5C 148.077,371.369 149.244,366.702 148.5,361.5C 149.5,361.5 150.5,361.5 151.5,361.5C 151.5,364.167 151.5,366.833 151.5,369.5C 151.5,370.833 151.5,372.167 151.5,373.5C 150.163,374.315 149.163,375.482 148.5,377C 145.331,377.978 142.497,377.478 140,375.5C 139.5,367.507 139.334,359.507 139.5,351.5C 139.5,348.833 139.5,346.167 139.5,343.5C 141.167,343.5 142.833,343.5 144.5,343.5C 144.5,346.167 144.5,348.833 144.5,351.5C 146.167,351.5 147.833,351.5 149.5,351.5 Z"/></g>
<g><path style="opacity:1" fill="#eac1e9" d="M 233.5,351.5 C 232.624,351.631 231.957,351.298 231.5,350.5C 232.309,348.929 232.643,347.262 232.5,345.5C 228.079,346.751 226.412,349.751 227.5,354.5C 227.112,359.361 228.612,363.361 232,366.5C 233.261,366.241 234.261,365.574 235,364.5C 235.397,360.288 237.564,357.954 241.5,357.5C 240.811,362.26 238.478,365.927 234.5,368.5C 229.501,369.652 226.001,367.985 224,363.5C 223.267,358.115 223.433,352.782 224.5,347.5C 227.107,343.685 230.774,342.518 235.5,344C 238.259,347.242 237.593,349.742 233.5,351.5 Z"/></g>
<g><path style="opacity:1" fill="#faecf9" d="M 76.5,345.5 C 75.5,345.5 74.5,345.5 73.5,345.5C 72.2863,352.785 71.2863,360.119 70.5,367.5C 71.8734,367.657 73.2068,367.49 74.5,367C 77.1205,360.206 81.4538,354.706 87.5,350.5C 87.8333,351.833 88.1667,353.167 88.5,354.5C 87.6679,360.489 87.0013,366.489 86.5,372.5C 87.8333,372.5 89.1667,372.5 90.5,372.5C 89.0813,373.451 87.4147,373.784 85.5,373.5C 89.5829,349.64 86.4162,347.973 76,368.5C 73.5769,370.994 71.2436,370.994 69,368.5C 68.7787,358.659 67.7787,358.325 66,367.5C 64,368.833 62,368.833 60,367.5C 59.5783,364.764 59.5783,362.098 60,359.5C 59.3292,360.252 58.4959,360.586 57.5,360.5C 59.1234,356.673 60.1234,352.673 60.5,348.5C 59.1667,348.5 57.8333,348.5 56.5,348.5C 58.5463,347.035 60.3796,347.368 62,349.5C 62.7083,348.619 63.5416,347.953 64.5,347.5C 64.5,345.833 64.5,344.167 64.5,342.5C 66.5273,342.338 68.5273,342.505 70.5,343C 71.1258,343.75 71.6258,344.584 72,345.5C 73.6155,344.199 75.1155,344.199 76.5,345.5 Z"/></g>
<g><path style="opacity:1" fill="#eac1ea" d="M 64.5,347.5 C 65.4345,346.432 65.7678,345.099 65.5,343.5C 66.8333,343.5 68.1667,343.5 69.5,343.5C 68.4057,351.473 66.739,359.306 64.5,367C 62.3927,367.854 61.0593,367.188 60.5,365C 62.1501,359.222 63.4834,353.388 64.5,347.5 Z"/></g>
<g><path style="opacity:1" fill="#eabfe9" d="M 76.5,345.5 C 77.1657,348.028 77.8324,350.694 78.5,353.5C 80.3888,351.568 82.3888,349.735 84.5,348C 87.6363,346.959 90.1363,347.793 92,350.5C 92.7783,357.937 92.2783,365.27 90.5,372.5C 89.1667,372.5 87.8333,372.5 86.5,372.5C 87.0013,366.489 87.6679,360.489 88.5,354.5C 88.1667,353.167 87.8333,351.833 87.5,350.5C 81.4538,354.706 77.1205,360.206 74.5,367C 73.2068,367.49 71.8734,367.657 70.5,367.5C 71.2863,360.119 72.2863,352.785 73.5,345.5C 74.5,345.5 75.5,345.5 76.5,345.5 Z"/></g>
<g><path style="opacity:1" fill="#f3dbf2" d="M 233.5,351.5 C 231.887,353.088 229.887,354.088 227.5,354.5C 226.412,349.751 228.079,346.751 232.5,345.5C 232.643,347.262 232.309,348.929 231.5,350.5C 231.957,351.298 232.624,351.631 233.5,351.5 Z"/></g>
<g><path style="opacity:1" fill="#faecf9" d="M 224.5,347.5 C 223.433,352.782 223.267,358.115 224,363.5C 226.001,367.985 229.501,369.652 234.5,368.5C 231.635,369.783 228.635,369.783 225.5,368.5C 223.329,365.495 221.829,362.161 221,358.5C 220.819,361.695 220.319,364.695 219.5,367.5C 219.665,363.818 219.499,360.152 219,356.5C 217.644,355.62 216.144,355.286 214.5,355.5C 215.314,360.119 215.647,364.786 215.5,369.5C 214.325,369.719 213.325,369.386 212.5,368.5C 211.518,365.904 210.851,363.238 210.5,360.5C 211.558,361.6 212.392,362.934 213,364.5C 213.499,360.848 213.665,357.182 213.5,353.5C 216.049,353.387 218.382,354.054 220.5,355.5C 220.982,352.297 222.315,349.631 224.5,347.5 Z"/></g>
<g><path style="opacity:1" fill="#eabfe9" d="M 101.5,349.5 C 100.778,356.159 100.611,362.825 101,369.5C 102.587,370.727 103.921,370.394 105,368.5C 106.873,362.97 108.039,357.303 108.5,351.5C 109.833,351.5 111.167,351.5 112.5,351.5C 112.128,358.837 111.628,366.171 111,373.5C 108.913,381.629 103.746,384.796 95.5,383C 93.9386,382.059 92.6053,380.892 91.5,379.5C 93.919,378.105 95.919,378.605 97.5,381C 102.519,381.151 105.186,378.651 105.5,373.5C 101.51,374.384 98.6771,373.051 97,369.5C 96.3113,363.118 96.6446,356.785 98,350.5C 99.0113,349.663 100.178,349.33 101.5,349.5 Z"/></g>
<g><path style="opacity:1" fill="#eac0e9" d="M 166.5,352.5 C 168.527,352.338 170.527,352.505 172.5,353C 173.428,353.388 174.095,354.055 174.5,355C 175.23,358.794 175.73,362.627 176,366.5C 177.09,369.939 178.256,373.273 179.5,376.5C 178.022,376.762 176.689,376.429 175.5,375.5C 174.498,373.49 173.498,371.49 172.5,369.5C 170.728,372.56 168.395,375.06 165.5,377C 158.333,379.167 155.833,376.667 158,369.5C 161.843,365.126 165.676,360.793 169.5,356.5C 168.833,356.167 168.167,355.833 167.5,355.5C 157.235,358.418 156.901,357.418 166.5,352.5 Z"/></g>
<g><path style="opacity:1" fill="#f8e8f8" d="M 56.5,348.5 C 56.1763,352.473 55.0096,356.14 53,359.5C 50.7042,362.388 49.5376,361.888 49.5,358C 51.5,348.185 54.1667,338.685 57.5,329.5C 56.1667,329.5 54.8333,329.5 53.5,329.5C 50.7674,338.924 48.1007,348.424 45.5,358C 45.3536,360.034 46.0203,361.701 47.5,363C 51.4204,364.02 54.7537,363.187 57.5,360.5C 56.3821,365.254 53.3821,366.754 48.5,365C 47.0692,364.535 45.9025,363.701 45,362.5C 44.3333,358.5 44.3333,354.5 45,350.5C 47.051,346.783 48.2176,342.783 48.5,338.5C 47.5,338.5 46.5,338.5 45.5,338.5C 45.5,337.167 45.5,335.833 45.5,334.5C 47.1992,334.66 48.8659,334.494 50.5,334C 51.6919,332.088 52.6919,330.088 53.5,328C 54.8989,327.405 56.2322,327.572 57.5,328.5C 58.7766,331.034 58.7766,333.534 57.5,336C 63.3059,339.903 62.6392,341.403 55.5,340.5C 55.1888,344.239 54.1888,347.739 52.5,351C 52.8333,351.5 53.1667,352 53.5,352.5C 54.1497,350.816 55.1497,349.483 56.5,348.5 Z"/></g>
<g><path style="opacity:1" fill="#fbecfb" d="M 101.5,349.5 C 102.552,349.351 103.552,349.517 104.5,350C 102.627,356.014 102.127,362.181 103,368.5C 104.7,362.693 106.533,357.026 108.5,351.5C 108.039,357.303 106.873,362.97 105,368.5C 103.921,370.394 102.587,370.727 101,369.5C 100.611,362.825 100.778,356.159 101.5,349.5 Z"/></g>
<g><path style="opacity:1" fill="#fae9f9" d="M 149.5,351.5 C 150.774,352.189 150.774,353.023 149.5,354C 147.866,354.494 146.199,354.66 144.5,354.5C 144.334,360.176 144.501,365.843 145,371.5C 146.262,367.687 146.929,363.687 147,359.5C 148.938,358.14 150.604,358.473 152,360.5C 152.805,363.696 152.638,366.696 151.5,369.5C 151.5,366.833 151.5,364.167 151.5,361.5C 150.5,361.5 149.5,361.5 148.5,361.5C 149.244,366.702 148.077,371.369 145,375.5C 143.571,368.281 143.071,360.947 143.5,353.5C 146.01,353.946 148.01,353.28 149.5,351.5 Z"/></g>
<g><path style="opacity:1" fill="#e9c0e8" d="M 185.5,351.5 C 190.158,350.514 193.824,351.848 196.5,355.5C 194.438,356.761 192.772,356.261 191.5,354C 190.207,353.51 188.873,353.343 187.5,353.5C 189.213,358.74 192.38,363.073 197,366.5C 197.848,374.302 194.348,377.135 186.5,375C 184.077,373.429 182.744,371.263 182.5,368.5C 183.873,368.343 185.207,368.51 186.5,369C 187.677,372.349 190.01,373.849 193.5,373.5C 193.662,371.473 193.495,369.473 193,367.5C 189.63,364.465 186.63,361.132 184,357.5C 183.252,355.16 183.752,353.16 185.5,351.5 Z"/></g>
<g><path style="opacity:1" fill="#fbeefb" d="M 167.5,363.5 C 169.344,364.204 169.844,365.537 169,367.5C 167.75,370.916 165.583,373.583 162.5,375.5C 161.359,373.579 161.192,371.579 162,369.5C 164.04,367.63 165.873,365.63 167.5,363.5 Z"/></g>
<g><path style="opacity:1" fill="#f6e3f5" d="M 139.5,351.5 C 139.334,359.507 139.5,367.507 140,375.5C 142.497,377.478 145.331,377.978 148.5,377C 149.163,375.482 150.163,374.315 151.5,373.5C 151.249,375.17 150.582,376.67 149.5,378C 146.118,378.824 142.784,378.657 139.5,377.5C 138.531,369.556 138.198,361.556 138.5,353.5C 133.213,352.039 133.547,351.372 139.5,351.5 Z"/></g>
</svg>
