<?xml version="1.0" encoding="UTF-8"?>
<!DOCTYPE svg PUBLIC "-//W3C//DTD SVG 1.1//EN" "http://www.w3.org/Graphics/SVG/1.1/DTD/svg11.dtd">
<svg xmlns="http://www.w3.org/2000/svg" version="1.1" width="380px" height="380px" style="shape-rendering:geometricPrecision; text-rendering:geometricPrecision; image-rendering:optimizeQuality; fill-rule:evenodd; clip-rule:evenodd" xmlns:xlink="http://www.w3.org/1999/xlink">
<g><path style="opacity:1" fill="#fefefe" d="M -0.5,-0.5 C 126.167,-0.5 252.833,-0.5 379.5,-0.5C 379.5,126.167 379.5,252.833 379.5,379.5C 252.833,379.5 126.167,379.5 -0.5,379.5C -0.5,252.833 -0.5,126.167 -0.5,-0.5 Z"/></g>
<g><path style="opacity:1" fill="#f18a1f" d="M 210.5,40.5 C 210.611,41.1174 210.944,41.6174 211.5,42C 197.833,42.3333 184.167,42.6667 170.5,43C 166.88,44.5787 163.214,44.7454 159.5,43.5C 162.447,42.92 165.114,41.92 167.5,40.5C 181.692,37.9049 196.025,37.9049 210.5,40.5 Z"/></g>
<g><path style="opacity:1" fill="#e89036" d="M 233.5,45.5 C 246.657,48.8871 258.99,54.2204 270.5,61.5C 271.298,61.9569 271.631,62.6236 271.5,63.5C 259.02,57.5671 246.353,52.2337 233.5,47.5C 234.506,47.0623 234.506,46.3957 233.5,45.5 Z"/></g>
<g><path style="opacity:1" fill="#ea8920" d="M 167.5,40.5 C 165.114,41.92 162.447,42.92 159.5,43.5C 163.214,44.7454 166.88,44.5787 170.5,43C 184.167,42.6667 197.833,42.3333 211.5,42C 210.944,41.6174 210.611,41.1174 210.5,40.5C 218.328,41.5572 225.995,43.2238 233.5,45.5C 234.506,46.3957 234.506,47.0623 233.5,47.5C 185.598,36.4825 141.598,44.8158 101.5,72.5C 99.5082,72.3285 97.8415,72.9951 96.5,74.5C 95.7025,74.0431 95.3691,73.3764 95.5,72.5C 116.42,55.0754 140.42,44.4087 167.5,40.5 Z"/></g>
<g><path style="opacity:1" fill="#ef850e" d="M 207.5,49.5 C 216.307,50.0273 224.974,51.5273 233.5,54C 237.229,54.8445 240.563,56.3445 243.5,58.5C 241.304,58.41 239.137,58.0767 237,57.5C 226.118,61.7822 214.952,62.6155 203.5,60C 208.593,58.2788 213.759,58.1122 219,59.5C 223.619,58.4593 228.119,57.126 232.5,55.5C 229.628,54.2175 226.795,54.2175 224,55.5C 223.383,54.5509 223.549,53.7175 224.5,53C 221.518,52.502 218.518,52.3354 215.5,52.5C 215.5,53.5 215.5,54.5 215.5,55.5C 212.212,55.073 209.212,55.7397 206.5,57.5C 201.554,56.3857 196.554,56.219 191.5,57C 190.692,57.3076 190.025,57.8076 189.5,58.5C 191.966,59.1235 194.299,59.9568 196.5,61C 195.5,61.3333 194.5,61.6667 193.5,62C 196.423,62.2066 198.256,63.7066 199,66.5C 199.804,67.8045 200.971,68.4712 202.5,68.5C 209.352,66.6563 216.352,65.9897 223.5,66.5C 223.5,65.5 223.5,64.5 223.5,63.5C 225.604,63.2011 227.604,63.5344 229.5,64.5C 223.666,65.7598 223.332,67.4265 228.5,69.5C 229.167,68.5 229.833,67.5 230.5,66.5C 231.039,69.1664 232.372,71.3331 234.5,73C 233.692,73.3076 233.025,73.8076 232.5,74.5C 232.97,76.7738 233.97,78.7738 235.5,80.5C 235.162,82.6552 235.162,84.9885 235.5,87.5C 243.177,87.2538 249.677,89.9205 255,95.5C 255.483,96.448 255.649,97.448 255.5,98.5C 253.291,97.08 251.291,95.4133 249.5,93.5C 247.117,91.6418 244.45,90.3084 241.5,89.5C 239.393,88.5318 237.059,88.1984 234.5,88.5C 233.825,84.6434 232.658,80.9767 231,77.5C 230.148,76.4293 229.315,75.4293 228.5,74.5C 225.94,71.7803 222.94,69.6136 219.5,68C 212.967,67.5138 206.634,68.1805 200.5,70C 193.116,61.3062 183.783,56.9729 172.5,57C 168.057,59.2213 163.724,61.388 159.5,63.5C 158.533,68.1871 156.533,72.5204 153.5,76.5C 150.564,77.3251 147.564,77.3251 144.5,76.5C 141.922,76.4419 139.589,77.1086 137.5,78.5C 138.607,76.0311 140.607,75.0311 143.5,75.5C 143.5,74.5 143.5,73.5 143.5,72.5C 140.15,72.665 136.817,72.4983 133.5,72C 132.045,69.9838 130.045,69.1505 127.5,69.5C 127.265,73.8035 124.931,75.4702 120.5,74.5C 120.5,75.5 120.5,76.5 120.5,77.5C 117.196,77.6998 114.696,76.3664 113,73.5C 111.862,73.9891 110.695,74.3225 109.5,74.5C 113.601,71.5779 117.601,68.4113 121.5,65C 129.069,61.2529 136.903,58.0862 145,55.5C 148.717,53.9818 152.551,52.9818 156.5,52.5C 173.299,50.0521 190.299,49.0521 207.5,49.5 Z"/></g>
<g><path style="opacity:1" fill="#e4b27c" d="M 271.5,63.5 C 278.244,65.9014 283.911,69.9014 288.5,75.5C 282.222,72.2094 276.555,68.2094 271.5,63.5 Z"/></g>
<g><path style="opacity:1" fill="#e9902f" d="M 95.5,72.5 C 95.3691,73.3764 95.7025,74.0431 96.5,74.5C 97.8415,72.9951 99.5082,72.3285 101.5,72.5C 80.8368,88.1642 64.5034,107.498 52.5,130.5C 52.1667,130.5 51.8333,130.5 51.5,130.5C 60.8382,107.172 75.5049,87.8386 95.5,72.5 Z"/></g>
<g><path style="opacity:1" fill="#e1d1ba" d="M 228.5,74.5 C 229.315,75.4293 230.148,76.4293 231,77.5C 232.658,80.9767 233.825,84.6434 234.5,88.5C 237.059,88.1984 239.393,88.5318 241.5,89.5C 238.753,89.8134 236.086,89.48 233.5,88.5C 230.133,80.4502 227.133,80.6169 224.5,89C 225.563,90.1882 226.897,90.6882 228.5,90.5C 228.285,93.966 229.618,96.6326 232.5,98.5C 235.273,99.9699 238.106,101.303 241,102.5C 242.567,101.144 244.4,100.477 246.5,100.5C 246.633,103.896 247.633,104.229 249.5,101.5C 250.614,98.8438 250.614,96.1771 249.5,93.5C 251.291,95.4133 253.291,97.08 255.5,98.5C 257.375,102.796 259.041,107.129 260.5,111.5C 261.317,119.88 260.15,127.88 257,135.5C 254.323,138.01 251.823,140.677 249.5,143.5C 245.167,143.5 240.833,143.5 236.5,143.5C 236.264,146.609 236.597,149.609 237.5,152.5C 236.508,152.672 235.842,152.338 235.5,151.5C 235.045,149.633 234.378,147.8 233.5,146C 235.214,142.653 235.714,139.153 235,135.5C 234.886,131.408 233.719,127.742 231.5,124.5C 225.638,123.009 219.638,122.176 213.5,122C 207.737,119.123 202.737,115.29 198.5,110.5C 192.257,109.063 185.923,108.229 179.5,108C 177.983,106.315 176.316,104.815 174.5,103.5C 173.692,105.423 173.192,107.423 173,109.5C 171.769,110.108 170.436,110.441 169,110.5C 164.914,109.202 161.081,107.535 157.5,105.5C 159,109.33 159.667,113.33 159.5,117.5C 157.332,118.179 155.332,119.179 153.5,120.5C 151.091,120.085 148.758,119.418 146.5,118.5C 145.124,114.251 144.624,109.918 145,105.5C 145.374,104.584 145.874,103.75 146.5,103C 150.741,101.296 154.907,99.4622 159,97.5C 162.227,92.2755 164.394,86.6089 165.5,80.5C 168.843,79.9013 171.843,78.568 174.5,76.5C 175.386,77.325 175.719,78.325 175.5,79.5C 177.199,79.3398 178.866,79.5065 180.5,80C 184.362,83.365 188.362,86.5316 192.5,89.5C 194.106,90.0766 195.772,90.4099 197.5,90.5C 202.007,89.5837 206.34,88.0837 210.5,86C 214.558,85.2334 218.558,85.4001 222.5,86.5C 223.833,83.8333 225.167,81.1667 226.5,78.5C 227.451,79.3256 228.451,79.4922 229.5,79C 228.62,77.6439 228.286,76.1439 228.5,74.5 Z"/></g>
<g><path style="opacity:1" fill="#fbf8ed" d="M 233.5,47.5 C 246.353,52.2337 259.02,57.5671 271.5,63.5C 276.555,68.2094 282.222,72.2094 288.5,75.5C 291.138,77.1223 293.804,78.7889 296.5,80.5C 298.483,82.9837 300.65,85.3171 303,87.5C 303.667,89.1667 303.667,90.8333 303,92.5C 302.092,90.5614 300.592,89.5614 298.5,89.5C 298.5,91.5 298.5,93.5 298.5,95.5C 286.177,83.3558 272.511,72.8558 257.5,64C 252.924,61.8765 248.257,60.0431 243.5,58.5C 240.563,56.3445 237.229,54.8445 233.5,54C 224.974,51.5273 216.307,50.0273 207.5,49.5C 190.257,46.4075 173.257,47.4075 156.5,52.5C 152.551,52.9818 148.717,53.9818 145,55.5C 136.903,58.0862 129.069,61.2529 121.5,65C 117.601,68.4113 113.601,71.5779 109.5,74.5C 84.643,91.7084 67.3096,114.708 57.5,143.5C 56.0762,145.515 55.4095,147.848 55.5,150.5C 54.64,153.632 53.64,156.632 52.5,159.5C 52.8921,156.052 52.2254,152.886 50.5,150C 52.825,146.906 52.9917,143.739 51,140.5C 50.7508,141.624 50.2508,142.624 49.5,143.5C 48.8933,143.376 48.56,143.043 48.5,142.5C 49.3702,138.315 50.7035,134.315 52.5,130.5C 64.5034,107.498 80.8368,88.1642 101.5,72.5C 141.598,44.8158 185.598,36.4825 233.5,47.5 Z"/></g>
<g><path style="opacity:1" fill="#e59537" d="M 207.5,49.5 C 190.299,49.0521 173.299,50.0521 156.5,52.5C 173.257,47.4075 190.257,46.4075 207.5,49.5 Z"/></g>
<g><path style="opacity:1" fill="#ede0d0" d="M 241.5,89.5 C 244.45,90.3084 247.117,91.6418 249.5,93.5C 250.614,96.1771 250.614,98.8438 249.5,101.5C 247.633,104.229 246.633,103.896 246.5,100.5C 244.4,100.477 242.567,101.144 241,102.5C 238.106,101.303 235.273,99.9699 232.5,98.5C 229.618,96.6326 228.285,93.966 228.5,90.5C 226.897,90.6882 225.563,90.1882 224.5,89C 227.133,80.6169 230.133,80.4502 233.5,88.5C 236.086,89.48 238.753,89.8134 241.5,89.5 Z"/></g>
<g><path style="opacity:1" fill="#eddfcf" d="M 228.5,74.5 C 228.286,76.1439 228.62,77.6439 229.5,79C 228.451,79.4922 227.451,79.3256 226.5,78.5C 225.167,81.1667 223.833,83.8333 222.5,86.5C 218.558,85.4001 214.558,85.2334 210.5,86C 206.34,88.0837 202.007,89.5837 197.5,90.5C 195.772,90.4099 194.106,90.0766 192.5,89.5C 188.362,86.5316 184.362,83.365 180.5,80C 178.866,79.5065 177.199,79.3398 175.5,79.5C 175.719,78.325 175.386,77.325 174.5,76.5C 171.843,78.568 168.843,79.9013 165.5,80.5C 164.394,86.6089 162.227,92.2755 159,97.5C 154.907,99.4622 150.741,101.296 146.5,103C 145.874,103.75 145.374,104.584 145,105.5C 144.624,109.918 145.124,114.251 146.5,118.5C 148.758,119.418 151.091,120.085 153.5,120.5C 155.332,119.179 157.332,118.179 159.5,117.5C 159.667,113.33 159,109.33 157.5,105.5C 161.081,107.535 164.914,109.202 169,110.5C 170.436,110.441 171.769,110.108 173,109.5C 173.192,107.423 173.692,105.423 174.5,103.5C 176.316,104.815 177.983,106.315 179.5,108C 185.923,108.229 192.257,109.063 198.5,110.5C 202.737,115.29 207.737,119.123 213.5,122C 219.638,122.176 225.638,123.009 231.5,124.5C 233.719,127.742 234.886,131.408 235,135.5C 235.714,139.153 235.214,142.653 233.5,146C 234.378,147.8 235.045,149.633 235.5,151.5C 222.664,146.565 209.331,143.732 195.5,143C 181.833,142.333 168.167,142.333 154.5,143C 150.627,143.608 146.96,144.774 143.5,146.5C 145.629,140.117 147.962,133.783 150.5,127.5C 152.476,126.573 152.809,125.24 151.5,123.5C 148.916,122.607 146.249,122.274 143.5,122.5C 130.178,116.86 125.012,106.86 128,92.5C 129.182,88.9677 130.848,85.6343 133,82.5C 134.049,80.6156 135.549,79.2823 137.5,78.5C 139.589,77.1086 141.922,76.4419 144.5,76.5C 147.564,77.3251 150.564,77.3251 153.5,76.5C 156.533,72.5204 158.533,68.1871 159.5,63.5C 163.724,61.388 168.057,59.2213 172.5,57C 183.783,56.9729 193.116,61.3062 200.5,70C 206.634,68.1805 212.967,67.5138 219.5,68C 222.94,69.6136 225.94,71.7803 228.5,74.5 Z"/></g>
<g><path style="opacity:1" fill="#e8b36f" d="M 143.5,122.5 C 146.249,122.274 148.916,122.607 151.5,123.5C 152.809,125.24 152.476,126.573 150.5,127.5C 150.67,126.178 150.337,125.011 149.5,124C 147.292,123.809 145.292,123.309 143.5,122.5 Z"/></g>
<g><path style="opacity:1" fill="#e9963f" d="M 260.5,111.5 C 261.655,118.321 261.821,125.321 261,132.5C 258.954,134.7 257.954,137.367 258,140.5C 255.536,139.474 253.702,140.308 252.5,143C 251.552,143.483 250.552,143.649 249.5,143.5C 251.823,140.677 254.323,138.01 257,135.5C 260.15,127.88 261.317,119.88 260.5,111.5 Z"/></g>
<g><path style="opacity:1" fill="#e6953b" d="M 319.5,130.5 C 324.157,138.06 327.157,146.393 328.5,155.5C 325.32,147.297 322.32,138.963 319.5,130.5 Z"/></g>
<g><path style="opacity:1" fill="#dea970" d="M 51.5,130.5 C 51.8333,130.5 52.1667,130.5 52.5,130.5C 50.7035,134.315 49.3702,138.315 48.5,142.5C 47.5902,144.019 46.7568,145.685 46,147.5C 46.025,141.162 47.8584,135.495 51.5,130.5 Z"/></g>
<g><path style="opacity:1" fill="#3f2e1e" d="M 235.5,151.5 C 235.842,152.338 236.508,152.672 237.5,152.5C 256.819,170.884 261.985,192.884 253,218.5C 246.941,232.227 237.108,242.394 223.5,249C 216.839,252.166 209.839,253.999 202.5,254.5C 202.037,251.518 201.704,248.518 201.5,245.5C 221.262,238.739 235.262,225.739 243.5,206.5C 253.8,202.072 256.967,194.738 253,184.5C 250.205,181.887 247.371,181.887 244.5,184.5C 242.913,178.924 239.58,174.924 234.5,172.5C 233.185,169.994 231.185,168.161 228.5,167C 224.755,166.698 221.422,165.531 218.5,163.5C 209.359,159.466 199.693,157.132 189.5,156.5C 180.939,155.232 172.105,153.899 163,152.5C 162.06,156.298 160.893,159.965 159.5,163.5C 153.135,171.873 147.135,180.54 141.5,189.5C 137.412,186.316 134.245,186.982 132,191.5C 130.129,202.439 134.629,208.772 145.5,210.5C 152.065,228.064 164.399,239.397 182.5,244.5C 182.5,247.167 182.5,249.833 182.5,252.5C 179.167,252.5 175.833,252.5 172.5,252.5C 170.165,249.835 167.165,248.502 163.5,248.5C 156.86,245.848 150.86,242.182 145.5,237.5C 143.787,234.735 141.62,232.402 139,230.5C 134.681,223.657 130.848,216.657 127.5,209.5C 127.5,207.167 127.5,204.833 127.5,202.5C 126.65,195.201 126.317,187.868 126.5,180.5C 128.364,167.226 134.031,155.893 143.5,146.5C 146.96,144.774 150.627,143.608 154.5,143C 168.167,142.333 181.833,142.333 195.5,143C 209.331,143.732 222.664,146.565 235.5,151.5 Z"/></g>
<g><path style="opacity:1" fill="#e0a466" d="M 57.5,143.5 C 57.5905,146.152 56.9238,148.485 55.5,150.5C 55.4095,147.848 56.0762,145.515 57.5,143.5 Z"/></g>
<g><path style="opacity:1" fill="#311c12" d="M 93.5,152.5 C 95.7925,152.244 97.9592,152.577 100,153.5C 102.553,159.78 104.386,166.28 105.5,173C 105.316,174.376 104.649,175.209 103.5,175.5C 101.599,170.983 99.7659,166.317 98,161.5C 95.8333,160 94.3333,160.5 93.5,163C 96.2919,171.355 99.4586,179.521 103,187.5C 104.011,188.337 105.178,188.67 106.5,188.5C 107.649,188.209 108.316,187.376 108.5,186C 106.972,183.719 106.472,181.219 107,178.5C 107.923,179.759 108.757,181.092 109.5,182.5C 110.183,182.137 110.85,181.804 111.5,181.5C 115.937,188.262 115.437,194.596 110,200.5C 109.333,204.167 109.333,207.833 110,211.5C 112.415,215.621 114.915,219.621 117.5,223.5C 118.169,226.849 119.836,229.516 122.5,231.5C 123.167,233.167 123.833,234.833 124.5,236.5C 124.461,239.089 125.461,241.089 127.5,242.5C 128.6,243.605 129.267,244.938 129.5,246.5C 127.071,247.551 124.738,248.884 122.5,250.5C 115.045,238.145 108.545,225.145 103,211.5C 98.8161,206.992 93.6495,204.492 87.5,204C 86.2125,202.59 85.0458,201.09 84,199.5C 78.8738,185.956 74.0405,172.289 69.5,158.5C 77.4929,156.502 85.4929,154.502 93.5,152.5 Z"/></g>
<g><path style="opacity:1" fill="#998569" d="M 189.5,156.5 C 199.693,157.132 209.359,159.466 218.5,163.5C 208.692,161.276 199.025,158.943 189.5,156.5 Z"/></g>
<g><path style="opacity:1" fill="#4e341b" d="M 189.5,156.5 C 199.025,158.943 208.692,161.276 218.5,163.5C 221.422,165.531 224.755,166.698 228.5,167C 231.185,168.161 233.185,169.994 234.5,172.5C 229.075,169.856 223.408,167.689 217.5,166C 200.235,162.559 183.069,158.725 166,154.5C 163.822,157.537 161.655,160.537 159.5,163.5C 160.893,159.965 162.06,156.298 163,152.5C 172.105,153.899 180.939,155.232 189.5,156.5 Z"/></g>
<g><path style="opacity:1" fill="#f08205" d="M 243.5,58.5 C 248.257,60.0431 252.924,61.8765 257.5,64C 272.511,72.8558 286.177,83.3558 298.5,95.5C 303.851,102.349 308.851,109.516 313.5,117C 316.177,121.228 318.177,125.728 319.5,130.5C 322.32,138.963 325.32,147.297 328.5,155.5C 329.434,156.568 329.768,157.901 329.5,159.5C 331.022,175.459 331.689,191.459 331.5,207.5C 330.407,213.816 329.407,220.149 328.5,226.5C 320.381,254.931 305.047,278.598 282.5,297.5C 276.989,291.993 270.656,287.66 263.5,284.5C 265.494,278.852 267.494,273.186 269.5,267.5C 268.674,261.021 266.674,255.021 263.5,249.5C 264.754,246.907 266.42,244.573 268.5,242.5C 285.793,222.602 300.626,200.935 313,177.5C 315.251,158.418 306.751,149.918 287.5,152C 280.938,154.896 276.438,159.729 274,166.5C 269.923,189.955 265.089,213.288 259.5,236.5C 258.21,239.642 257.21,242.975 256.5,246.5C 253.755,246.945 251.255,247.945 249,249.5C 248.09,251.945 248.924,253.278 251.5,253.5C 251.5,254.167 251.5,254.833 251.5,255.5C 248.956,255.104 246.789,255.771 245,257.5C 242.303,262.338 239.47,267.005 236.5,271.5C 233.813,271.664 231.146,271.497 228.5,271C 224.968,269.368 221.301,268.201 217.5,267.5C 216.22,266.069 214.553,265.402 212.5,265.5C 212.389,264.883 212.056,264.383 211.5,264C 208.487,263.498 205.487,262.998 202.5,262.5C 202.5,259.833 202.5,257.167 202.5,254.5C 209.839,253.999 216.839,252.166 223.5,249C 237.108,242.394 246.941,232.227 253,218.5C 261.985,192.884 256.819,170.884 237.5,152.5C 236.597,149.609 236.264,146.609 236.5,143.5C 240.833,143.5 245.167,143.5 249.5,143.5C 250.552,143.649 251.552,143.483 252.5,143C 253.702,140.308 255.536,139.474 258,140.5C 257.954,137.367 258.954,134.7 261,132.5C 261.821,125.321 261.655,118.321 260.5,111.5C 259.041,107.129 257.375,102.796 255.5,98.5C 255.649,97.448 255.483,96.448 255,95.5C 249.677,89.9205 243.177,87.2538 235.5,87.5C 235.162,84.9885 235.162,82.6552 235.5,80.5C 233.97,78.7738 232.97,76.7738 232.5,74.5C 233.025,73.8076 233.692,73.3076 234.5,73C 232.372,71.3331 231.039,69.1664 230.5,66.5C 229.833,67.5 229.167,68.5 228.5,69.5C 223.332,67.4265 223.666,65.7598 229.5,64.5C 227.604,63.5344 225.604,63.2011 223.5,63.5C 223.5,64.5 223.5,65.5 223.5,66.5C 216.352,65.9897 209.352,66.6563 202.5,68.5C 200.971,68.4712 199.804,67.8045 199,66.5C 198.256,63.7066 196.423,62.2066 193.5,62C 194.5,61.6667 195.5,61.3333 196.5,61C 194.299,59.9568 191.966,59.1235 189.5,58.5C 190.025,57.8076 190.692,57.3076 191.5,57C 196.554,56.219 201.554,56.3857 206.5,57.5C 209.212,55.7397 212.212,55.073 215.5,55.5C 215.5,54.5 215.5,53.5 215.5,52.5C 218.518,52.3354 221.518,52.502 224.5,53C 223.549,53.7175 223.383,54.5509 224,55.5C 226.795,54.2175 229.628,54.2175 232.5,55.5C 228.119,57.126 223.619,58.4593 219,59.5C 213.759,58.1122 208.593,58.2788 203.5,60C 214.952,62.6155 226.118,61.7822 237,57.5C 239.137,58.0767 241.304,58.41 243.5,58.5 Z"/></g>
<g><path style="opacity:1" fill="#e99c46" d="M 329.5,159.5 C 333.837,175.364 334.504,191.364 331.5,207.5C 331.689,191.459 331.022,175.459 329.5,159.5 Z"/></g>
<g><path style="opacity:1" fill="#673608" d="M 126.5,180.5 C 126.317,187.868 126.65,195.201 127.5,202.5C 126.732,201.737 126.232,200.737 126,199.5C 125.18,192.986 125.347,186.653 126.5,180.5 Z"/></g>
<g><path style="opacity:1" fill="#f08305" d="M 137.5,78.5 C 135.549,79.2823 134.049,80.6156 133,82.5C 130.848,85.6343 129.182,88.9677 128,92.5C 125.012,106.86 130.178,116.86 143.5,122.5C 145.292,123.309 147.292,123.809 149.5,124C 150.337,125.011 150.67,126.178 150.5,127.5C 147.962,133.783 145.629,140.117 143.5,146.5C 134.031,155.893 128.364,167.226 126.5,180.5C 125.347,186.653 125.18,192.986 126,199.5C 126.232,200.737 126.732,201.737 127.5,202.5C 127.5,204.833 127.5,207.167 127.5,209.5C 128.509,214.797 128.509,220.131 127.5,225.5C 125.549,225.773 124.049,225.107 123,223.5C 122.71,225.044 122.044,226.377 121,227.5C 120.584,225.45 119.417,224.116 117.5,223.5C 114.915,219.621 112.415,215.621 110,211.5C 109.333,207.833 109.333,204.167 110,200.5C 115.437,194.596 115.937,188.262 111.5,181.5C 107.169,171.535 103.835,161.202 101.5,150.5C 98.5049,150.294 95.8383,150.96 93.5,152.5C 85.4929,154.502 77.4929,156.502 69.5,158.5C 74.0405,172.289 78.8738,185.956 84,199.5C 85.0458,201.09 86.2125,202.59 87.5,204C 93.6495,204.492 98.8161,206.992 103,211.5C 108.545,225.145 115.045,238.145 122.5,250.5C 121.609,251.261 120.942,252.261 120.5,253.5C 119.711,258.239 118.711,262.906 117.5,267.5C 119.463,274.682 121.796,281.682 124.5,288.5C 117.617,292.051 111.617,296.718 106.5,302.5C 84.4381,286.008 68.4381,265.008 58.5,239.5C 55.1813,228.879 52.5147,218.213 50.5,207.5C 48.7272,191.381 49.3939,175.381 52.5,159.5C 53.64,156.632 54.64,153.632 55.5,150.5C 56.9238,148.485 57.5905,146.152 57.5,143.5C 67.3096,114.708 84.643,91.7084 109.5,74.5C 110.695,74.3225 111.862,73.9891 113,73.5C 114.696,76.3664 117.196,77.6998 120.5,77.5C 120.5,76.5 120.5,75.5 120.5,74.5C 124.931,75.4702 127.265,73.8035 127.5,69.5C 130.045,69.1505 132.045,69.9838 133.5,72C 136.817,72.4983 140.15,72.665 143.5,72.5C 143.5,73.5 143.5,74.5 143.5,75.5C 140.607,75.0311 138.607,76.0311 137.5,78.5 Z"/></g>
<g><path style="opacity:1" fill="#3a200a" d="M 90.5,161.5 C 88.8333,161.5 87.1667,161.5 85.5,161.5C 88.4293,171.287 91.7627,180.954 95.5,190.5C 93.5695,190.771 92.2362,191.771 91.5,193.5C 88.9108,184.065 85.9108,174.731 82.5,165.5C 84.3079,164.082 84.9746,162.082 84.5,159.5C 86.8984,159.259 88.8984,159.926 90.5,161.5 Z"/></g>
<g><path style="opacity:1" fill="#402009" d="M 111.5,181.5 C 110.85,181.804 110.183,182.137 109.5,182.5C 108.757,181.092 107.923,179.759 107,178.5C 106.472,181.219 106.972,183.719 108.5,186C 108.316,187.376 107.649,188.209 106.5,188.5C 106.118,184.022 105.118,179.689 103.5,175.5C 104.649,175.209 105.316,174.376 105.5,173C 104.386,166.28 102.553,159.78 100,153.5C 97.9592,152.577 95.7925,152.244 93.5,152.5C 95.8383,150.96 98.5049,150.294 101.5,150.5C 103.835,161.202 107.169,171.535 111.5,181.5 Z"/></g>
<g><path style="opacity:1" fill="#e47d15" d="M 82.5,165.5 C 85.9108,174.731 88.9108,184.065 91.5,193.5C 90.4583,194.791 89.2917,194.791 88,193.5C 84.91,184.975 81.7433,176.475 78.5,168C 79.0319,165.98 80.3652,165.147 82.5,165.5 Z"/></g>
<g><path style="opacity:1" fill="#df7c14" d="M 90.5,161.5 C 93.0531,170.629 96.2198,179.629 100,188.5C 100.494,190.134 100.66,191.801 100.5,193.5C 97.715,194.084 96.0483,193.084 95.5,190.5C 91.7627,180.954 88.4293,171.287 85.5,161.5C 87.1667,161.5 88.8333,161.5 90.5,161.5 Z"/></g>
<g><path style="opacity:1" fill="#df7f11" d="M 103.5,175.5 C 105.118,179.689 106.118,184.022 106.5,188.5C 105.178,188.67 104.011,188.337 103,187.5C 99.4586,179.521 96.2919,171.355 93.5,163C 94.3333,160.5 95.8333,160 98,161.5C 99.7659,166.317 101.599,170.983 103.5,175.5 Z"/></g>
<g><path style="opacity:1" fill="#fff7e0" d="M 52.5,159.5 C 49.3939,175.381 48.7272,191.381 50.5,207.5C 48.8938,194.537 47.8938,181.371 47.5,168C 47.3504,162.191 48.1838,162.024 50,167.5C 49.9467,164.325 50.78,161.658 52.5,159.5 Z"/></g>
<g><path style="opacity:1" fill="#e6b784" d="M 234.5,172.5 C 239.58,174.924 242.913,178.924 244.5,184.5C 247.371,181.887 250.205,181.887 253,184.5C 256.967,194.738 253.8,202.072 243.5,206.5C 235.262,225.739 221.262,238.739 201.5,245.5C 195.573,246.331 189.573,246.331 183.5,245.5C 183.796,248.263 184.796,250.763 186.5,253C 191.222,253.777 195.889,253.61 200.5,252.5C 201.182,253.243 201.849,253.909 202.5,254.5C 202.5,257.167 202.5,259.833 202.5,262.5C 205.487,262.998 208.487,263.498 211.5,264C 212.056,264.383 212.389,264.883 212.5,265.5C 209.823,264.386 207.156,264.386 204.5,265.5C 205.325,266.386 206.325,266.719 207.5,266.5C 211.858,284.97 204.858,292.47 186.5,289C 180.428,283.963 177.762,277.463 178.5,269.5C 180.5,269.5 182.5,269.5 184.5,269.5C 184.5,268.167 184.5,266.833 184.5,265.5C 182.5,265.5 180.5,265.5 178.5,265.5C 179.531,264.751 180.698,264.085 182,263.5C 182.498,260.518 182.665,257.518 182.5,254.5C 182.5,253.833 182.5,253.167 182.5,252.5C 182.5,249.833 182.5,247.167 182.5,244.5C 164.399,239.397 152.065,228.064 145.5,210.5C 134.629,208.772 130.129,202.439 132,191.5C 134.245,186.982 137.412,186.316 141.5,189.5C 147.135,180.54 153.135,171.873 159.5,163.5C 161.655,160.537 163.822,157.537 166,154.5C 183.069,158.725 200.235,162.559 217.5,166C 223.408,167.689 229.075,169.856 234.5,172.5 Z"/></g>
<g><path style="opacity:1" fill="#d38e6d" d="M 201.5,217.5 C 203.604,217.201 205.604,217.534 207.5,218.5C 198.326,224.984 188.992,225.151 179.5,219C 187.011,218.829 194.345,218.329 201.5,217.5 Z"/></g>
<g><path style="opacity:1" fill="#e7a879" d="M 163.5,196.5 C 167.519,196.646 171.519,196.979 175.5,197.5C 176.553,200.079 177.887,202.579 179.5,205C 178.667,206.5 177.5,207.667 176,208.5C 175.517,209.448 175.351,210.448 175.5,211.5C 170.203,212.275 164.87,212.608 159.5,212.5C 159.712,207.557 158.712,206.89 156.5,210.5C 155.614,209.675 155.281,208.675 155.5,207.5C 154.5,207.5 153.5,207.5 152.5,207.5C 153.256,205.387 153.423,203.387 153,201.5C 156.866,200.194 160.366,198.528 163.5,196.5 Z"/></g>
<g><path style="opacity:1" fill="#e6a97a" d="M 221.5,194.5 C 225.698,195.339 229.865,196.339 234,197.5C 234.97,199.274 235.804,201.107 236.5,203C 234.347,205.099 233.68,207.433 234.5,210C 232.4,212.641 229.734,213.641 226.5,213C 227.524,211.633 227.024,210.8 225,210.5C 219.972,212.205 215.306,211.539 211,208.5C 208.718,200.727 211.551,196.893 219.5,197C 220.381,196.292 221.047,195.458 221.5,194.5 Z"/></g>
<g><path style="opacity:1" fill="#50402b" d="M 217.5,183.5 C 222.006,182.527 224.172,184.194 224,188.5C 222.605,189.815 221.605,189.481 221,187.5C 219.246,189.25 217.079,189.917 214.5,189.5C 214.028,186.642 215.028,184.642 217.5,183.5 Z"/></g>
<g><path style="opacity:1" fill="#524535" d="M 162.5,184.5 C 166.939,184.415 169.105,186.415 169,190.5C 166.599,191.602 164.099,191.769 161.5,191C 158.777,188.341 159.11,186.175 162.5,184.5 Z"/></g>
<g><path style="opacity:1" fill="#57381c" d="M 157.5,175.5 C 161.182,175.335 164.848,175.501 168.5,176C 169.973,176.71 170.64,177.876 170.5,179.5C 163.868,177.357 157.868,178.357 152.5,182.5C 151.417,181.635 151.251,180.635 152,179.5C 154.015,178.303 155.849,176.97 157.5,175.5 Z"/></g>
<g><path style="opacity:1" fill="#50341a" d="M 213.5,173.5 C 218.742,173.023 223.742,173.856 228.5,176C 230.559,177.185 230.726,178.352 229,179.5C 223.693,176.379 218.026,175.713 212,177.5C 211.5,177.167 211,176.833 210.5,176.5C 211.34,175.265 212.34,174.265 213.5,173.5 Z"/></g>
<g><path style="opacity:1" fill="#54270b" d="M 268.5,242.5 C 268.617,240.516 267.95,238.85 266.5,237.5C 265.808,238.025 265.308,238.692 265,239.5C 264.805,237.793 264.805,236.126 265,234.5C 264.667,234.833 264.333,235.167 264,235.5C 263.581,234.328 262.915,233.328 262,232.5C 261.066,233.858 260.232,235.192 259.5,236.5C 265.089,213.288 269.923,189.955 274,166.5C 276.438,159.729 280.938,154.896 287.5,152C 306.751,149.918 315.251,158.418 313,177.5C 300.626,200.935 285.793,222.602 268.5,242.5 Z"/></g>
<g><path style="opacity:1" fill="#cb7924" d="M 274.5,200.5 C 275.268,201.263 275.768,202.263 276,203.5C 276.278,202.584 276.778,201.918 277.5,201.5C 265.794,233.677 264.794,233.344 274.5,200.5 Z"/></g>
<g><path style="opacity:1" fill="#e37f18" d="M 287.5,153.5 C 288.552,153.351 289.552,153.517 290.5,154C 286.825,157.172 283.992,161.005 282,165.5C 277.54,184.169 272.206,202.502 266,220.5C 269.603,202.97 272.937,185.303 276,167.5C 277.873,161.136 281.706,156.469 287.5,153.5 Z"/></g>
<g><path style="opacity:1" fill="#e27f17" d="M 307.5,159.5 C 309.61,160.453 310.777,162.119 311,164.5C 311.667,168.833 311.667,173.167 311,177.5C 301.097,196.3 289.43,213.967 276,230.5C 285.28,214.829 294.28,198.829 303,182.5C 306.851,175.31 308.351,167.643 307.5,159.5 Z"/></g>
<g><path style="opacity:1" fill="#e68014" d="M 296.5,157.5 C 297.756,157.461 298.756,157.961 299.5,159C 298.556,161.719 298.223,164.552 298.5,167.5C 294.974,178.488 290.808,189.155 286,199.5C 280.23,210.041 274.73,220.708 269.5,231.5C 268.833,232.833 268.167,232.833 267.5,231.5C 276.075,211.515 283.575,191.181 290,170.5C 291.685,165.796 293.852,161.462 296.5,157.5 Z"/></g>
<g><path style="opacity:1" fill="#e17e16" d="M 277.5,201.5 C 276.778,201.918 276.278,202.584 276,203.5C 275.768,202.263 275.268,201.263 274.5,200.5C 277.507,188.808 280.673,177.141 284,165.5C 286.618,160.549 290.284,156.549 295,153.5C 288.896,169.379 283.063,185.379 277.5,201.5 Z"/></g>
<g><path style="opacity:1" fill="#e07d17" d="M 302.5,156.5 C 303.79,157.058 304.623,158.058 305,159.5C 306.008,166.088 305.342,172.421 303,178.5C 297.785,189.389 292.118,200.055 286,210.5C 281.581,217.672 276.915,224.672 272,231.5C 280.137,215.888 287.803,199.888 295,183.5C 298.909,174.863 301.409,165.863 302.5,156.5 Z"/></g>
<g><path style="opacity:1" fill="#cc7c1c" d="M 298.5,167.5 C 298.223,164.552 298.556,161.719 299.5,159C 298.756,157.961 297.756,157.461 296.5,157.5C 298.701,152.22 300.035,152.387 300.5,158C 300.386,161.412 299.719,164.579 298.5,167.5 Z"/></g>
<g><path style="opacity:1" fill="#fdf1d4" d="M 50.5,207.5 C 52.5147,218.213 55.1813,228.879 58.5,239.5C 57.3509,239.209 56.6842,238.376 56.5,237C 55.3834,234.269 54.7167,231.435 54.5,228.5C 53.325,228.719 52.325,228.386 51.5,227.5C 52.3928,224.916 52.7261,222.249 52.5,219.5C 51.5,219.5 50.5,219.5 49.5,219.5C 49.8333,215.5 50.1667,211.5 50.5,207.5 Z"/></g>
<g><path style="opacity:1" fill="#df8012" d="M 127.5,209.5 C 130.848,216.657 134.681,223.657 139,230.5C 141.62,232.402 143.787,234.735 145.5,237.5C 142.828,237.172 141.161,235.672 140.5,233C 139.552,232.517 138.552,232.351 137.5,232.5C 137.649,233.552 137.483,234.552 137,235.5C 135.214,234.213 135.047,232.713 136.5,231C 136.095,230.055 135.428,229.388 134.5,229C 135.167,228.667 135.833,228.333 136.5,228C 135.167,227.667 133.833,227.333 132.5,227C 133.759,224.328 133.092,222.161 130.5,220.5C 129.766,223.666 128.6,226.666 127,229.5C 126.581,228.328 125.915,227.328 125,226.5C 123.117,227.653 122.284,229.319 122.5,231.5C 119.836,229.516 118.169,226.849 117.5,223.5C 119.417,224.116 120.584,225.45 121,227.5C 122.044,226.377 122.71,225.044 123,223.5C 124.049,225.107 125.549,225.773 127.5,225.5C 128.509,220.131 128.509,214.797 127.5,209.5 Z"/></g>
<g><path style="opacity:1" fill="#342110" d="M 268.5,242.5 C 266.42,244.573 264.754,246.907 263.5,249.5C 261.716,249.107 260.05,248.441 258.5,247.5C 258.942,243.846 259.276,240.179 259.5,236.5C 260.232,235.192 261.066,233.858 262,232.5C 262.915,233.328 263.581,234.328 264,235.5C 264.333,235.167 264.667,234.833 265,234.5C 264.805,236.126 264.805,237.793 265,239.5C 265.308,238.692 265.808,238.025 266.5,237.5C 267.95,238.85 268.617,240.516 268.5,242.5 Z"/></g>
<g><path style="opacity:1" fill="#5f2408" d="M 259.5,236.5 C 259.276,240.179 258.942,243.846 258.5,247.5C 257.508,247.672 256.842,247.338 256.5,246.5C 257.21,242.975 258.21,239.642 259.5,236.5 Z"/></g>
<g><path style="opacity:1" fill="#956e3d" d="M 124.5,236.5 C 126.539,237.911 127.539,239.911 127.5,242.5C 125.461,241.089 124.461,239.089 124.5,236.5 Z"/></g>
<g><path style="opacity:1" fill="#6a3d0b" d="M 163.5,248.5 C 167.165,248.502 170.165,249.835 172.5,252.5C 169.088,251.925 166.088,250.592 163.5,248.5 Z"/></g>
<g><path style="opacity:1" fill="#da9e68" d="M 201.5,245.5 C 201.704,248.518 202.037,251.518 202.5,254.5C 201.849,253.909 201.182,253.243 200.5,252.5C 195.889,253.61 191.222,253.777 186.5,253C 184.796,250.763 183.796,248.263 183.5,245.5C 189.573,246.331 195.573,246.331 201.5,245.5 Z"/></g>
<g><path style="opacity:1" fill="#67370f" d="M 172.5,252.5 C 175.833,252.5 179.167,252.5 182.5,252.5C 182.5,253.167 182.5,253.833 182.5,254.5C 178.96,254.247 175.627,253.581 172.5,252.5 Z"/></g>
<g><path style="opacity:1" fill="#e1a25d" d="M 331.5,242.5 C 328.187,252.794 323.52,262.461 317.5,271.5C 317.672,270.508 317.338,269.842 316.5,269.5C 321.994,260.699 326.994,251.699 331.5,242.5 Z"/></g>
<g><path style="opacity:1" fill="#43200a" d="M 251.5,255.5 C 251.5,254.833 251.5,254.167 251.5,253.5C 256.816,251.474 258.816,253.141 257.5,258.5C 255.556,257.199 253.556,256.199 251.5,255.5 Z"/></g>
<g><path style="opacity:1" fill="#ef8308" d="M 145.5,237.5 C 150.86,242.182 156.86,245.848 163.5,248.5C 166.088,250.592 169.088,251.925 172.5,252.5C 175.627,253.581 178.96,254.247 182.5,254.5C 182.665,257.518 182.498,260.518 182,263.5C 180.698,264.085 179.531,264.751 178.5,265.5C 173.515,265.306 169.849,267.306 167.5,271.5C 167.265,270.903 166.765,270.57 166,270.5C 160.193,272.269 154.36,273.936 148.5,275.5C 147.662,275.158 147.328,274.492 147.5,273.5C 148.613,272.054 148.78,270.387 148,268.5C 145.82,266.137 144.153,263.47 143,260.5C 140.856,258.081 138.356,256.414 135.5,255.5C 136.36,253.184 136.86,250.851 137,248.5C 134.699,247.133 132.199,246.466 129.5,246.5C 129.267,244.938 128.6,243.605 127.5,242.5C 127.539,239.911 126.539,237.911 124.5,236.5C 123.833,234.833 123.167,233.167 122.5,231.5C 122.284,229.319 123.117,227.653 125,226.5C 125.915,227.328 126.581,228.328 127,229.5C 128.6,226.666 129.766,223.666 130.5,220.5C 133.092,222.161 133.759,224.328 132.5,227C 133.833,227.333 135.167,227.667 136.5,228C 135.833,228.333 135.167,228.667 134.5,229C 135.428,229.388 136.095,230.055 136.5,231C 135.047,232.713 135.214,234.213 137,235.5C 137.483,234.552 137.649,233.552 137.5,232.5C 138.552,232.351 139.552,232.517 140.5,233C 141.161,235.672 142.828,237.172 145.5,237.5 Z"/></g>
<g><path style="opacity:1" fill="#e7b580" d="M 256.5,246.5 C 256.842,247.338 257.508,247.672 258.5,247.5C 260.05,248.441 261.716,249.107 263.5,249.5C 266.674,255.021 268.674,261.021 269.5,267.5C 267.494,273.186 265.494,278.852 263.5,284.5C 262.493,287.535 261.66,290.535 261,293.5C 265.041,297.047 269.208,300.38 273.5,303.5C 268.465,308.687 262.465,312.354 255.5,314.5C 254.833,313.167 254.167,311.833 253.5,310.5C 251.562,304.62 249.062,298.953 246,293.5C 245.466,289.141 245.632,284.808 246.5,280.5C 248.142,272.83 245.142,270.497 237.5,273.5C 237.167,272.833 236.833,272.167 236.5,271.5C 239.47,267.005 242.303,262.338 245,257.5C 246.789,255.771 248.956,255.104 251.5,255.5C 253.556,256.199 255.556,257.199 257.5,258.5C 258.816,253.141 256.816,251.474 251.5,253.5C 248.924,253.278 248.09,251.945 249,249.5C 251.255,247.945 253.755,246.945 256.5,246.5 Z"/></g>
<g><path style="opacity:1" fill="#e6b482" d="M 129.5,246.5 C 132.199,246.466 134.699,247.133 137,248.5C 136.86,250.851 136.36,253.184 135.5,255.5C 138.356,256.414 140.856,258.081 143,260.5C 144.153,263.47 145.82,266.137 148,268.5C 148.78,270.387 148.613,272.054 147.5,273.5C 144.998,272.221 142.498,272.221 140,273.5C 139.503,277.524 139.669,281.524 140.5,285.5C 140.665,288.518 140.498,291.518 140,294.5C 136.543,301.743 133.377,309.076 130.5,316.5C 124.02,313.827 117.687,310.66 111.5,307C 110.619,306.292 109.953,305.458 109.5,304.5C 115.035,301.81 120.201,298.477 125,294.5C 125.49,292.455 125.323,290.455 124.5,288.5C 121.796,281.682 119.463,274.682 117.5,267.5C 118.711,262.906 119.711,258.239 120.5,253.5C 120.942,252.261 121.609,251.261 122.5,250.5C 124.738,248.884 127.071,247.551 129.5,246.5 Z"/></g>
<g><path style="opacity:1" fill="#3b210e" d="M 129.5,252.5 C 132.95,251.756 134.616,253.09 134.5,256.5C 132.323,256.586 130.323,257.253 128.5,258.5C 127.23,256.243 127.564,254.243 129.5,252.5 Z"/></g>
<g><path style="opacity:1" fill="#b60a07" d="M 217.5,267.5 C 221.301,268.201 224.968,269.368 228.5,271C 231.146,271.497 233.813,271.664 236.5,271.5C 236.833,272.167 237.167,272.833 237.5,273.5C 237.649,274.552 237.483,275.552 237,276.5C 234.631,279.366 232.465,282.366 230.5,285.5C 229.476,286.853 228.143,287.52 226.5,287.5C 224.029,280.561 221.029,273.895 217.5,267.5 Z"/></g>
<g><path style="opacity:1" fill="#311d12" d="M 147.5,273.5 C 147.328,274.492 147.662,275.158 148.5,275.5C 149.167,276.833 149.833,278.167 150.5,279.5C 150.539,280.583 150.873,281.583 151.5,282.5C 149.321,282.991 147.321,282.991 145.5,282.5C 146.309,284.071 146.643,285.738 146.5,287.5C 145.5,287.5 144.5,287.5 143.5,287.5C 142.222,287.218 141.222,286.551 140.5,285.5C 139.669,281.524 139.503,277.524 140,273.5C 142.498,272.221 144.998,272.221 147.5,273.5 Z"/></g>
<g><path style="opacity:1" fill="#e88e2d" d="M 316.5,269.5 C 317.338,269.842 317.672,270.508 317.5,271.5C 314.922,275.646 312.089,279.646 309,283.5C 307.549,285.464 305.716,286.797 303.5,287.5C 303.351,286.448 303.517,285.448 304,284.5C 308.408,279.602 312.574,274.602 316.5,269.5 Z"/></g>
<g><path style="opacity:1" fill="#b60805" d="M 207.5,266.5 C 210.144,269.773 212.311,273.44 214,277.5C 217.967,287.916 221.801,298.249 225.5,308.5C 225.5,309.5 225.5,310.5 225.5,311.5C 219.926,313.453 213.926,314.12 207.5,313.5C 193.163,313.667 178.829,313.5 164.5,313C 165.61,309.951 166.277,306.784 166.5,303.5C 167.839,296.325 169.672,289.325 172,282.5C 173.685,277.796 175.852,273.462 178.5,269.5C 177.762,277.463 180.428,283.963 186.5,289C 204.858,292.47 211.858,284.97 207.5,266.5 Z"/></g>
<g><path style="opacity:1" fill="#49150e" d="M 150.5,279.5 C 152.194,280.527 153.527,281.861 154.5,283.5C 154.5,284.167 154.5,284.833 154.5,285.5C 152.719,288.184 150.385,290.184 147.5,291.5C 147.167,291.5 146.833,291.5 146.5,291.5C 144.468,290.952 143.468,289.619 143.5,287.5C 144.5,287.5 145.5,287.5 146.5,287.5C 146.643,285.738 146.309,284.071 145.5,282.5C 147.321,282.991 149.321,282.991 151.5,282.5C 150.873,281.583 150.539,280.583 150.5,279.5 Z"/></g>
<g><path style="opacity:1" fill="#9a1004" d="M 147.5,284.5 C 149.346,284.222 150.68,284.889 151.5,286.5C 150.311,287.429 148.978,287.762 147.5,287.5C 147.5,286.5 147.5,285.5 147.5,284.5 Z"/></g>
<g><path style="opacity:1" fill="#311c10" d="M 246.5,280.5 C 243,285.176 239.667,290.009 236.5,295C 234.19,295.497 231.857,295.663 229.5,295.5C 228.892,292.673 227.892,290.007 226.5,287.5C 228.143,287.52 229.476,286.853 230.5,285.5C 232.465,282.366 234.631,279.366 237,276.5C 237.483,275.552 237.649,274.552 237.5,273.5C 245.142,270.497 248.142,272.83 246.5,280.5 Z"/></g>
<g><path style="opacity:1" fill="#78100a" d="M 154.5,283.5 C 155.803,286.355 155.803,289.355 154.5,292.5C 152.368,294.117 150.035,294.617 147.5,294C 146.748,293.329 146.414,292.496 146.5,291.5C 146.833,291.5 147.167,291.5 147.5,291.5C 149.662,292.417 151.995,292.417 154.5,291.5C 154.5,289.5 154.5,287.5 154.5,285.5C 154.5,284.833 154.5,284.167 154.5,283.5 Z"/></g>
<g><path style="opacity:1" fill="#b70f07" d="M 263.5,284.5 C 270.656,287.66 276.989,291.993 282.5,297.5C 280.021,300.318 277.021,302.318 273.5,303.5C 269.208,300.38 265.041,297.047 261,293.5C 261.66,290.535 262.493,287.535 263.5,284.5 Z"/></g>
<g><path style="opacity:1" fill="#f0d8c7" d="M 178.5,265.5 C 180.5,265.5 182.5,265.5 184.5,265.5C 184.5,266.833 184.5,268.167 184.5,269.5C 182.5,269.5 180.5,269.5 178.5,269.5C 175.852,273.462 173.685,277.796 172,282.5C 169.672,289.325 167.839,296.325 166.5,303.5C 164.882,306.888 163.882,310.554 163.5,314.5C 163.5,314.833 163.5,315.167 163.5,315.5C 162.022,315.762 160.689,315.429 159.5,314.5C 158.77,311.891 158.27,309.224 158,306.5C 157.066,307.858 156.232,309.192 155.5,310.5C 158.433,297.21 162.433,284.21 167.5,271.5C 169.849,267.306 173.515,265.306 178.5,265.5 Z"/></g>
<g><path style="opacity:1" fill="#e7d5b4" d="M 95.5,305.5 C 94.8333,305.5 94.1667,305.5 93.5,305.5C 88.7659,303.928 85.5992,300.928 84,296.5C 87.8017,299.833 91.635,302.833 95.5,305.5 Z"/></g>
<g><path style="opacity:1" fill="#b70c06" d="M 167.5,271.5 C 162.433,284.21 158.433,297.21 155.5,310.5C 154.626,313.535 153.626,316.535 152.5,319.5C 151.307,319.03 150.64,318.03 150.5,316.5C 151.172,314.168 151.339,311.834 151,309.5C 149.762,312.259 148.596,315.093 147.5,318C 148.707,319.3 149.374,320.8 149.5,322.5C 148.167,322.5 146.833,322.5 145.5,322.5C 145.271,320.567 144.438,318.9 143,317.5C 142.184,318.823 141.017,319.489 139.5,319.5C 140.059,317.321 140.726,315.154 141.5,313C 141.167,312.5 140.833,312 140.5,311.5C 137.872,314.14 134.872,316.14 131.5,317.5C 130.833,317.5 130.5,317.167 130.5,316.5C 133.377,309.076 136.543,301.743 140,294.5C 140.498,291.518 140.665,288.518 140.5,285.5C 141.222,286.551 142.222,287.218 143.5,287.5C 143.468,289.619 144.468,290.952 146.5,291.5C 146.414,292.496 146.748,293.329 147.5,294C 150.035,294.617 152.368,294.117 154.5,292.5C 155.803,289.355 155.803,286.355 154.5,283.5C 153.527,281.861 152.194,280.527 150.5,279.5C 149.833,278.167 149.167,276.833 148.5,275.5C 154.36,273.936 160.193,272.269 166,270.5C 166.765,270.57 167.265,270.903 167.5,271.5 Z"/></g>
<g><path style="opacity:1" fill="#24200b" d="M 154.5,285.5 C 154.5,287.5 154.5,289.5 154.5,291.5C 151.995,292.417 149.662,292.417 147.5,291.5C 150.385,290.184 152.719,288.184 154.5,285.5 Z"/></g>
<g><path style="opacity:1" fill="#b51407" d="M 124.5,288.5 C 125.323,290.455 125.49,292.455 125,294.5C 120.201,298.477 115.035,301.81 109.5,304.5C 108.29,304.068 107.29,303.401 106.5,302.5C 111.617,296.718 117.617,292.051 124.5,288.5 Z"/></g>
<g><path style="opacity:1" fill="#fbf6ec" d="M 331.5,242.5 C 326.994,251.699 321.994,260.699 316.5,269.5C 312.574,274.602 308.408,279.602 304,284.5C 303.517,285.448 303.351,286.448 303.5,287.5C 296.802,292.071 290.469,297.404 284.5,303.5C 261.638,320.641 235.971,331.308 207.5,335.5C 209.56,333.852 211.893,332.352 214.5,331C 212.19,330.503 209.857,330.337 207.5,330.5C 212.694,329.7 218.028,328.867 223.5,328C 227.637,325.931 231.971,324.431 236.5,323.5C 237.791,323.737 238.791,323.404 239.5,322.5C 243.054,320.891 246.721,319.558 250.5,318.5C 252.389,317.396 254.055,316.063 255.5,314.5C 262.465,312.354 268.465,308.687 273.5,303.5C 277.021,302.318 280.021,300.318 282.5,297.5C 305.047,278.598 320.381,254.931 328.5,226.5C 329.167,229.833 329.833,233.167 330.5,236.5C 331.5,236.5 332.5,236.5 333.5,236.5C 334.585,232.24 335.252,227.906 335.5,223.5C 336.5,223.5 337.5,223.5 338.5,223.5C 338.5,227.167 338.5,230.833 338.5,234.5C 337.325,234.281 336.325,234.614 335.5,235.5C 334.157,237.904 332.823,240.238 331.5,242.5 Z"/></g>
<g><path style="opacity:1" fill="#ee811f" d="M 253.5,310.5 C 254.167,311.833 254.833,313.167 255.5,314.5C 254.055,316.063 252.389,317.396 250.5,318.5C 249.503,314.863 249.003,311.196 249,307.5C 250.4,308.748 251.9,309.748 253.5,310.5 Z"/></g>
<g><path style="opacity:1" fill="#b50b08" d="M 246.5,280.5 C 245.632,284.808 245.466,289.141 246,293.5C 249.062,298.953 251.562,304.62 253.5,310.5C 251.9,309.748 250.4,308.748 249,307.5C 249.003,311.196 249.503,314.863 250.5,318.5C 246.721,319.558 243.054,320.891 239.5,322.5C 238.503,322.53 237.836,322.03 237.5,321C 236.097,315.627 234.43,310.46 232.5,305.5C 231.808,302.064 230.808,298.73 229.5,295.5C 231.857,295.663 234.19,295.497 236.5,295C 239.667,290.009 243,285.176 246.5,280.5 Z"/></g>
<g><path style="opacity:1" fill="#ed8123" d="M 139.5,319.5 C 139.5,320.167 139.5,320.833 139.5,321.5C 136.52,320.677 133.853,319.343 131.5,317.5C 134.872,316.14 137.872,314.14 140.5,311.5C 140.833,312 141.167,312.5 141.5,313C 140.726,315.154 140.059,317.321 139.5,319.5 Z"/></g>
<g><path style="opacity:1" fill="#a11f1a" d="M 166.5,303.5 C 166.277,306.784 165.61,309.951 164.5,313C 178.829,313.5 193.163,313.667 207.5,313.5C 207.5,313.833 207.5,314.167 207.5,314.5C 192.833,314.5 178.167,314.5 163.5,314.5C 163.882,310.554 164.882,306.888 166.5,303.5 Z"/></g>
<g><path style="opacity:1" fill="#f9c4b7" d="M 232.5,305.5 C 234.43,310.46 236.097,315.627 237.5,321C 237.836,322.03 238.503,322.53 239.5,322.5C 238.791,323.404 237.791,323.737 236.5,323.5C 234.621,322.095 234.288,320.428 235.5,318.5C 233.862,314.312 232.862,309.978 232.5,305.5 Z"/></g>
<g><path style="opacity:1" fill="#eb8b25" d="M 303.5,287.5 C 303.649,288.552 303.483,289.552 303,290.5C 298.833,294.667 294.667,298.833 290.5,303C 289.552,303.483 288.552,303.649 287.5,303.5C 287.67,304.822 287.337,305.989 286.5,307C 280.658,310.754 274.991,314.754 269.5,319C 263.328,321.918 257.328,325.085 251.5,328.5C 245.048,330.649 238.715,332.982 232.5,335.5C 229.402,335.756 226.402,336.422 223.5,337.5C 217.823,337.378 212.49,338.378 207.5,340.5C 200.506,340.863 193.506,341.197 186.5,341.5C 177.485,340.557 168.485,339.557 159.5,338.5C 144.653,335.33 130.653,329.997 117.5,322.5C 117.842,321.662 118.508,321.328 119.5,321.5C 125.287,324.394 131.287,326.727 137.5,328.5C 146.732,332.217 156.399,334.55 166.5,335.5C 180.153,336.772 193.82,336.772 207.5,335.5C 235.971,331.308 261.638,320.641 284.5,303.5C 290.469,297.404 296.802,292.071 303.5,287.5 Z"/></g>
<g><path style="opacity:1" fill="#e3a460" d="M 93.5,305.5 C 94.1667,305.5 94.8333,305.5 95.5,305.5C 102.845,311.838 110.845,317.171 119.5,321.5C 118.508,321.328 117.842,321.662 117.5,322.5C 108.489,318.322 100.489,312.655 93.5,305.5 Z"/></g>
<g><path style="opacity:1" fill="#ae1e13" d="M 152.5,319.5 C 153.244,322.95 151.91,324.616 148.5,324.5C 145.421,323.696 142.421,322.696 139.5,321.5C 139.5,320.833 139.5,320.167 139.5,319.5C 141.017,319.489 142.184,318.823 143,317.5C 144.438,318.9 145.271,320.567 145.5,322.5C 146.833,322.5 148.167,322.5 149.5,322.5C 149.374,320.8 148.707,319.3 147.5,318C 148.596,315.093 149.762,312.259 151,309.5C 151.339,311.834 151.172,314.168 150.5,316.5C 150.64,318.03 151.307,319.03 152.5,319.5 Z"/></g>
<g><path style="opacity:1" fill="#ede0d0" d="M 212.5,265.5 C 214.553,265.402 216.22,266.069 217.5,267.5C 221.029,273.895 224.029,280.561 226.5,287.5C 227.892,290.007 228.892,292.673 229.5,295.5C 230.808,298.73 231.808,302.064 232.5,305.5C 232.862,309.978 233.862,314.312 235.5,318.5C 234.288,320.428 234.621,322.095 236.5,323.5C 231.971,324.431 227.637,325.931 223.5,328C 218.028,328.867 212.694,329.7 207.5,330.5C 196.828,330.667 186.161,330.5 175.5,330C 166.183,328.816 157.183,326.983 148.5,324.5C 151.91,324.616 153.244,322.95 152.5,319.5C 153.626,316.535 154.626,313.535 155.5,310.5C 156.232,309.192 157.066,307.858 158,306.5C 158.27,309.224 158.77,311.891 159.5,314.5C 160.689,315.429 162.022,315.762 163.5,315.5C 165.948,316.473 168.615,316.806 171.5,316.5C 172.167,320.5 172.833,320.5 173.5,316.5C 190.495,315.697 207.495,315.53 224.5,316C 225.337,317.011 225.67,318.178 225.5,319.5C 227.5,319.5 229.5,319.5 231.5,319.5C 231.662,317.473 231.495,315.473 231,313.5C 230.517,314.448 230.351,315.448 230.5,316.5C 229.5,316.5 228.5,316.5 227.5,316.5C 227.44,313.979 228.106,311.646 229.5,309.5C 228.831,306.972 227.998,306.972 227,309.5C 226.617,308.944 226.117,308.611 225.5,308.5C 221.801,298.249 217.967,287.916 214,277.5C 212.311,273.44 210.144,269.773 207.5,266.5C 206.325,266.719 205.325,266.386 204.5,265.5C 207.156,264.386 209.823,264.386 212.5,265.5 Z"/></g>
<g><path style="opacity:1" fill="#f9cfc0" d="M 163.5,315.5 C 163.5,315.167 163.5,314.833 163.5,314.5C 178.167,314.5 192.833,314.5 207.5,314.5C 213.833,314.5 220.167,314.5 226.5,314.5C 226.737,313.209 226.404,312.209 225.5,311.5C 225.5,310.5 225.5,309.5 225.5,308.5C 226.117,308.611 226.617,308.944 227,309.5C 227.998,306.972 228.831,306.972 229.5,309.5C 228.106,311.646 227.44,313.979 227.5,316.5C 228.5,316.5 229.5,316.5 230.5,316.5C 230.351,315.448 230.517,314.448 231,313.5C 231.495,315.473 231.662,317.473 231.5,319.5C 229.5,319.5 227.5,319.5 225.5,319.5C 225.67,318.178 225.337,317.011 224.5,316C 207.495,315.53 190.495,315.697 173.5,316.5C 172.833,320.5 172.167,320.5 171.5,316.5C 168.615,316.806 165.948,316.473 163.5,315.5 Z"/></g>
<g><path style="opacity:1" fill="#db8b82" d="M 225.5,311.5 C 226.404,312.209 226.737,313.209 226.5,314.5C 220.167,314.5 213.833,314.5 207.5,314.5C 207.5,314.167 207.5,313.833 207.5,313.5C 213.926,314.12 219.926,313.453 225.5,311.5 Z"/></g>
<g><path style="opacity:1" fill="#f8e8c6" d="M 137.5,328.5 C 146.625,330.977 155.959,332.644 165.5,333.5C 165.863,334.183 166.196,334.85 166.5,335.5C 156.399,334.55 146.732,332.217 137.5,328.5 Z"/></g>
<g><path style="opacity:1" fill="#feedcf" d="M 251.5,328.5 C 250.652,330.093 249.319,331.26 247.5,332C 242.663,333.891 237.663,335.058 232.5,335.5C 238.715,332.982 245.048,330.649 251.5,328.5 Z"/></g>
<g><path style="opacity:1" fill="#f9dcac" d="M 223.5,337.5 C 221.166,338.124 218.833,338.957 216.5,340C 213.518,340.498 210.518,340.665 207.5,340.5C 212.49,338.378 217.823,337.378 223.5,337.5 Z"/></g>
<g><path style="opacity:1" fill="#fef6df" d="M 159.5,338.5 C 168.485,339.557 177.485,340.557 186.5,341.5C 193.506,341.197 200.506,340.863 207.5,340.5C 202.04,341.829 196.207,342.496 190,342.5C 184.167,342.333 178.333,342.167 172.5,342C 167.992,341.076 163.658,339.91 159.5,338.5 Z"/></g>
</svg>
